<svg version="1.1" x="0" y="0" width="100%" height="100%" viewBox="0 0 592844.8 76748.8" xmlns="http://www.w3.org/2000/svg">
  <path d="M 44704 14188.8 L 49912 9228.8 Q 56608 14684.8 60080 18156.8 Q 57848 20140.8 54624 23364.8 Q 50160 18652.8 44704 14188.8  Z M 5768 49156.8 L 4280 40724.8 Q 6264 40476.8 9984 40228.8 Q 13208 39732.8 14944 39732.8 L 14944 32044.8 L 4280 32044.8 L 4280 24604.8 L 14944 24604.8 L 14944 18652.8 Q 13208 18900.8 9488 19148.8 Q 7752 19396.8 6760 19396.8 Q 6760 18900.8 6512 17164.8 Q 6016 13940.8 5768 11956.8 Q 18912 10964.8 31064 9476.8 L 32800 16668.8 Q 28832 17412.8 23872 17908.8 L 23872 24604.8 L 35280 24604.8 Q 35032 16668.8 34536 7740.8 L 42968 7740.8 Q 42968 16420.8 43464 24604.8 L 62808 24604.8 L 62808 32044.8 L 43712 32044.8 Q 44208 38740.8 45200 43452.8 Q 50160 38740.8 54376 32788.8 L 60824 37996.8 Q 54872 45436.8 47432 51636.8 Q 48920 55356.8 50904 56596.8 Q 53632 58084.8 54376 55604.8 Q 55368 52380.8 56112 46428.8 Q 60328 49156.8 63304 50396.8 Q 61816 58580.8 60328 60812.8 Q 58096 65276.8 53632 65276.8 Q 45200 65276.8 40736 56596.8 Q 35528 59572.8 30072 62548.8 Q 28336 59572.8 25112 56100.8 Q 32304 53372.8 38008 49156.8 Q 36024 40476.8 35776 32044.8 L 23872 32044.8 L 23872 38740.8 Q 25608 38492.8 28832 37996.8 Q 32304 37500.8 33792 37252.8 Q 33544 41964.8 33792 45188.8 Q 28584 45684.8 23872 46428.8 L 23872 58084.8 Q 23872 64284.8 18168 64532.8 Q 14200 65028.8 8000 65028.8 Q 7256 59820.8 5768 57588.8 Q 9240 57836.8 12960 57836.8 Q 14944 57836.8 14944 54860.8 L 14944 47668.8 Q 10232 48412.8 5768 49156.8  Z M 88352 11956.8 L 94800 7740.8 Q 95792 8980.8 97280 11212.8 Q 99512 13444.8 101744 17164.8 L 95296 21628.8 Q 94552 20388.8 93064 18156.8 Q 89840 13940.8 88352 11956.8  Z M 88352 64780.8 L 88352 22868.8 L 96040 22868.8 L 96040 64780.8 L 88352 64780.8 Z M 78680 7740.8 L 86616 9972.8 Q 84880 15676.8 82896 20884.8 L 82896 64780.8 L 74960 64780.8 L 74960 37004.8 Q 74712 37500.8 73968 38492.8 Q 72480 40972.8 70000 44444.8 Q 69256 39236.8 68016 33532.8 Q 75208 21876.8 78680 7740.8  Z M 123816 11460.8 L 123816 53620.8 Q 123816 64036.8 114888 64780.8 Q 113152 64780.8 109680 64780.8 Q 105712 65028.8 103728 65028.8 Q 103232 60812.8 101744 57340.8 Q 106704 57340.8 110672 57340.8 Q 116128 57340.8 116128 51636.8 L 116128 19396.8 L 104224 19396.8 L 104224 11460.8 L 123816 11460.8 Z M 149360 62548.8 L 149360 55108.8 L 165232 55108.8 L 165232 41964.8 L 152336 41964.8 L 152336 34276.8 L 165232 34276.8 L 165232 23612.8 L 173664 23612.8 L 173664 34276.8 L 186808 34276.8 L 186808 41964.8 L 173664 41964.8 L 173664 55108.8 L 189536 55108.8 L 189536 62548.8 L 149360 62548.8 Z M 132992 21628.8 L 132992 13940.8 L 149360 13940.8 Q 150848 10468.8 151840 7244.8 L 160520 7740.8 Q 159776 10964.8 158784 13940.8 L 189288 13940.8 L 189288 21628.8 L 155560 21628.8 Q 152088 29068.8 147128 35764.8 L 147128 65276.8 L 139192 65276.8 L 139192 44692.8 Q 138448 45436.8 136960 46676.8 Q 135472 48164.8 134728 48908.8 Q 132992 43452.8 131256 39732.8 Q 140184 31548.8 145888 21628.8 L 132992 21628.8 Z M 238888 7740.8 L 238888 15180.8 L 227976 15180.8 L 227976 65028.8 L 220536 65028.8 L 220536 7740.8 L 238888 7740.8 Z M 237648 13692.8 L 237648 9228.8 L 222272 9228.8 L 222272 63788.8 L 226240 63788.8 L 226240 13692.8 L 237648 13692.8 Z M 308328 51388.8 L 308328 20884.8 L 305104 20884.8 L 305104 51388.8 L 308328 51388.8 Z M 286504 56844.8 Q 289232 56596.8 289232 53620.8 L 289232 23860.8 L 285760 23860.8 Q 285760 30556.8 285760 33036.8 Q 285760 45684.8 282536 56844.8 Q 285016 56844.8 286504 56844.8  Z M 259224 37252.8 L 259224 30308.8 L 263440 30308.8 L 263440 19892.8 L 258976 19892.8 L 258976 12700.8 L 275344 12700.8 L 275344 19892.8 L 270632 19892.8 L 270632 30308.8 L 274848 30308.8 L 274848 37252.8 L 270632 37252.8 L 270632 49404.8 Q 271376 49156.8 273360 48660.8 Q 274848 48412.8 275592 48164.8 Q 275344 49404.8 275344 52132.8 Q 275096 54364.8 275096 55852.8 Q 266912 57588.8 259472 59324.8 L 258232 51884.8 Q 259224 51636.8 260960 51388.8 Q 262696 50892.8 263440 50892.8 L 263440 37252.8 L 259224 37252.8 Z M 305104 62796.8 L 298656 62796.8 L 298656 13444.8 L 314776 13444.8 L 314776 62548.8 L 308328 62548.8 L 308328 58828.8 L 305104 58828.8 L 305104 62796.8 Z M 279312 7988.8 L 286008 7988.8 Q 285760 12452.8 285760 16668.8 L 295680 16668.8 L 295680 56596.8 Q 295680 63044.8 289728 63540.8 Q 288240 63788.8 284024 63788.8 Q 283280 59572.8 282288 56844.8 Q 280800 61556.8 278320 65524.8 Q 276832 64284.8 272120 61556.8 Q 279064 51388.8 279064 33036.8 Q 279312 31052.8 279312 23860.8 L 276336 23860.8 L 276336 16668.8 L 279312 16668.8 Q 279312 12700.8 279312 7988.8  Z M 336600 65028.8 L 336600 58084.8 L 347512 58084.8 L 347512 7740.8 L 354952 7740.8 L 354952 65028.8 L 336600 65028.8 Z M 337840 59076.8 L 337840 63540.8 L 353216 63540.8 L 353216 8980.8 L 349248 8980.8 L 349248 59076.8 L 337840 59076.8 Z M 387688 51636.8 L 387688 45436.8 L 422904 45436.8 L 422904 42212.8 L 385704 42212.8 L 385704 36012.8 L 410504 36012.8 L 410504 32292.8 L 389920 32292.8 L 389920 26092.8 L 410504 26092.8 L 410504 21876.8 L 417696 21876.8 Q 416208 20636.8 414472 19644.8 Q 415216 18900.8 415712 17908.8 L 404800 17908.8 Q 407032 20636.8 408520 22124.8 L 402816 25844.8 Q 401824 24356.8 398352 20140.8 L 401080 17908.8 L 396368 17908.8 Q 393640 21628.8 390664 24852.8 Q 388432 22124.8 385208 19644.8 Q 390912 13940.8 394632 7492.8 L 403312 7492.8 Q 402816 8236.8 401824 9972.8 Q 400832 11460.8 400336 12452.8 L 416208 12452.8 L 416208 17412.8 Q 419680 12452.8 421912 7492.8 L 431088 7492.8 Q 430840 8236.8 429848 9972.8 Q 429104 11460.8 428608 12452.8 L 443240 12452.8 L 443240 17908.8 L 433816 17908.8 Q 434560 18652.8 435800 19892.8 Q 437040 21380.8 437536 22124.8 L 432080 25844.8 Q 430344 23860.8 427616 20388.8 Q 427120 19892.8 426872 19644.8 L 429104 17908.8 L 425136 17908.8 Q 422904 21132.8 420672 23860.8 Q 419928 23364.8 418440 22372.8 L 418440 26092.8 L 439768 26092.8 L 439768 32292.8 L 418440 32292.8 L 418440 36012.8 L 443984 36012.8 L 443984 42212.8 L 431088 42212.8 L 431088 45436.8 L 441752 45436.8 L 441752 51636.8 L 431088 51636.8 L 431088 57836.8 Q 431088 64780.8 424392 64780.8 Q 420424 65028.8 412984 65028.8 Q 412736 63540.8 411992 60068.8 Q 411744 58332.8 411496 57340.8 Q 412736 57340.8 415216 57340.8 Q 417944 57588.8 419432 57588.8 Q 422904 57588.8 422904 53868.8 L 422904 51636.8 L 405544 51636.8 Q 407776 54612.8 409760 57340.8 L 402816 61556.8 Q 399592 57092.8 396120 51636.8 L 387688 51636.8 Z M 493336 36012.8 L 500776 34028.8 Q 501024 34524.8 501520 36012.8 Q 504992 45932.8 507472 54116.8 L 499536 56844.8 Q 496312 44444.8 493336 36012.8  Z M 465560 52876.8 Q 469776 44692.8 472752 33532.8 L 480440 35516.8 Q 477464 46676.8 472752 56348.8 Q 471264 55356.8 467296 53620.8 Q 466304 53124.8 465560 52876.8  Z M 482920 25844.8 L 491352 25844.8 L 491352 57092.8 Q 491352 64036.8 485152 64284.8 Q 483912 64284.8 481184 64284.8 Q 477712 64532.8 475728 64532.8 Q 475480 60812.8 474240 57340.8 Q 475728 57340.8 477712 57588.8 Q 479200 57588.8 479944 57588.8 Q 482920 57588.8 482920 54860.8 L 482920 25844.8 Z M 481432 15180.8 L 506232 15180.8 L 506232 22124.8 L 503504 32292.8 L 495568 30804.8 L 497800 22372.8 L 478456 22372.8 Q 474240 30804.8 471760 34028.8 Q 470520 33284.8 468040 31052.8 Q 466552 29812.8 465560 29068.8 Q 471264 20388.8 475232 7988.8 L 483664 9228.8 Q 482672 12204.8 481432 15180.8  Z M 460600 7740.8 L 468536 10220.8 Q 466304 17164.8 463576 23364.8 L 463576 64780.8 L 455640 64780.8 L 455640 39236.8 Q 454648 40724.8 452664 43948.8 Q 451920 45436.8 451424 46180.8 Q 451176 44692.8 450432 41468.8 Q 449440 37004.8 448944 34772.8 Q 456136 22868.8 460600 7740.8  Z M 533016 29812.8 L 527312 34028.8 L 537232 34028.8 L 537232 21876.8 L 526072 21876.8 Q 526568 22372.8 527312 23116.8 Q 529296 25348.8 533016 29812.8  Z M 557320 21876.8 L 545912 21876.8 L 545912 34028.8 L 555336 34028.8 L 550128 29564.8 Q 553600 26340.8 557320 21876.8  Z L 563272 26092.8 Q 559552 31052.8 556080 34028.8 L 570216 34028.8 L 570216 41716.8 L 550624 41716.8 Q 558808 50148.8 570712 54612.8 Q 568232 57836.8 565504 61556.8 Q 552856 55356.8 545912 45932.8 L 545912 65028.8 L 537232 65028.8 L 537232 46180.8 Q 529792 55604.8 517640 62052.8 Q 515160 58332.8 512432 55356.8 Q 523840 50396.8 532024 41716.8 L 513424 41716.8 L 513424 34028.8 L 526568 34028.8 Q 525576 32788.8 523096 29564.8 Q 521112 27084.8 520120 25844.8 L 525576 21876.8 L 516400 21876.8 L 516400 14188.8 L 537232 14188.8 L 537232 7740.8 L 545912 7740.8 L 545912 14188.8 L 566992 14188.8 L 566992 21876.8 L 557320 21876.8 Z " fill-rule="nonzero" style="fill:#c4a256;;fill-opacity:1;"/>
</svg>