<svg version="1.1" x="0" y="0" width="100%" height="100%" viewBox="0 0 394188.8 81254.4" xmlns="http://www.w3.org/2000/svg">
  <path d="M 20000 6348.8 L 21920 4524.8 Q 23456 5964.8 25280 7788.8 L 23264 9804.8 Q 22688 9228.8 21632 8076.8 Q 20480 6924.8 20000 6348.8  Z M 15104 5772.8 L 15104 8460.8 L 4832 8460.8 L 4832 5772.8 L 15104 5772.8 Z M 16448 16044.8 L 16448 18636.8 L 12704 18636.8 L 12704 21804.8 Q 14816 21708.8 13184 21804.8 Q 14816 21708.8 17120 21420.8 Q 16928 22380.8 16832 24012.8 Q 16736 24204.8 16736 24396.8 Q 15488 24492.8 13184 24780.8 Q 9344 25068.8 3584 25740.8 L 3104 22668.8 Q 3392 22668.8 3968 22572.8 Q 4640 22572.8 4928 22476.8 L 4928 14796.8 L 7808 14796.8 L 7808 22284.8 Q 8096 22188.8 8672 22188.8 Q 9248 22092.8 9536 22092.8 L 9536 13548.8 L 12704 13548.8 L 12704 16044.8 L 16448 16044.8 Z M 3200 13068.8 L 3200 10188.8 L 16736 10188.8 Q 16640 9228.8 16640 7212.8 Q 16544 5196.8 16544 4236.8 L 19712 4236.8 Q 19712 7020.8 19808 10188.8 L 25568 10188.8 L 25568 13068.8 L 19904 13068.8 Q 20384 20268.8 22016 23052.8 Q 22304 23436.8 22496 23436.8 Q 22880 23436.8 22976 22860.8 Q 23168 21804.8 23168 19404.8 Q 24320 19980.8 25664 20364.8 Q 25472 23628.8 24896 25068.8 Q 24224 26508.8 22592 26508.8 Q 20864 26508.8 19904 25548.8 Q 17312 23148.8 16832 13068.8 L 3200 13068.8 Z M 27968 13164.8 L 27968 9996.8 L 36992 9996.8 Q 37184 7500.8 37184 4236.8 L 40640 4236.8 Q 40640 5292.8 40544 7116.8 Q 40544 9132.8 40448 9996.8 L 49856 9996.8 L 49856 13164.8 L 40640 13164.8 Q 42656 20844.8 50240 23436.8 Q 48512 25068.8 47552 26412.8 Q 41216 23436.8 38912 17196.8 Q 36992 23052.8 30176 26508.8 Q 30080 26412.8 29792 26028.8 Q 28544 24588.8 27584 23820.8 Q 35936 20076.8 36704 13164.8 L 27968 13164.8 Z M 53024 25548.8 L 53024 22572.8 L 62720 22572.8 L 62720 18732.8 L 55904 18732.8 L 55904 15660.8 L 62720 15660.8 L 62720 11820.8 L 57152 11820.8 Q 55712 14796.8 53792 17292.8 Q 53696 16908.8 53408 16236.8 Q 53120 15372.8 52256 13356.8 Q 54560 10188.8 56192 5100.8 L 59648 5868.8 Q 59552 6252.8 59264 6828.8 Q 59168 7404.8 58592 8748.8 L 62720 8748.8 L 62720 4236.8 L 66080 4236.8 L 66080 8748.8 L 73664 8748.8 L 73664 11820.8 L 66080 11820.8 L 66080 15660.8 L 72800 15660.8 L 72800 18732.8 L 66080 18732.8 L 66080 22572.8 L 74528 22572.8 L 74528 25548.8 L 53024 25548.8 Z M 77504 6828.8 L 79424 4812.8 Q 81632 6444.8 83360 7884.8 L 81248 10092.8 Q 80864 9708.8 79808 8844.8 Q 78368 7596.8 77504 6828.8  Z M 76640 12684.8 L 78560 10380.8 Q 78848 10572.8 79328 10956.8 Q 81632 12876.8 82784 13932.8 L 80672 16236.8 Q 78560 14220.8 76640 12684.8  Z M 79616 16908.8 Q 81056 17484.8 82688 17868.8 Q 81248 23436.8 80192 26412.8 Q 78560 25836.8 77120 25452.8 Q 78272 22092.8 79616 16908.8  Z M 95072 22860.8 L 95072 19116.8 L 87008 19116.8 L 87008 22860.8 L 95072 22860.8 Z M 83072 13452.8 L 83072 10764.8 L 89504 10764.8 L 89504 8076.8 Q 88544 8076.8 86624 8172.8 Q 84704 8172.8 83744 8268.8 Q 83744 8172.8 83744 7980.8 Q 83648 7116.8 83360 5676.8 Q 91040 5388.8 97952 4908.8 L 98336 7500.8 Q 95552 7788.8 92672 7884.8 L 92672 10764.8 L 99104 10764.8 L 99104 13452.8 L 92672 13452.8 L 92672 16332.8 L 98240 16332.8 L 98240 26508.8 L 95072 26508.8 L 95072 25452.8 L 87008 25452.8 L 87008 26604.8 L 83936 26604.8 L 83936 16332.8 L 89504 16332.8 L 89504 13452.8 L 83072 13452.8 Z M 124160 12588.8 Q 123680 13164.8 122624 14604.8 Q 122144 15180.8 121952 15468.8 Q 121568 15180.8 120800 14604.8 Q 120512 14316.8 120320 14124.8 Q 120224 15852.8 120128 18636.8 Q 120032 21420.8 119936 22284.8 Q 119744 26028.8 115904 25932.8 Q 113984 25932.8 111584 25836.8 Q 111488 25260.8 111392 24300.8 Q 111200 23148.8 111104 22572.8 Q 112640 22668.8 115328 22860.8 Q 116384 22860.8 116480 21708.8 Q 116672 20268.8 116768 16428.8 L 111104 16428.8 Q 111104 16908.8 111008 17868.8 Q 110912 18924.8 110816 19404.8 Q 109952 24204.8 104000 26604.8 Q 102560 24684.8 101696 23916.8 Q 106592 21900.8 107264 18924.8 Q 107552 17676.8 107648 16428.8 L 104384 16428.8 L 104384 14604.8 Q 103808 14988.8 103232 15468.8 Q 102272 13836.8 101216 12876.8 Q 106304 9132.8 108992 4236.8 L 112064 5484.8 Q 109664 10092.8 106016 13260.8 L 119360 13260.8 Q 116096 10092.8 113600 5772.8 L 116384 4236.8 Q 119456 9228.8 124160 12588.8  Z M 131744 12876.8 L 142496 12876.8 L 142496 11628.8 L 131744 11628.8 L 131744 12876.8 Z M 126176 8460.8 L 126176 6060.8 L 135488 6060.8 Q 135200 5196.8 134816 4524.8 L 138560 3948.8 Q 138656 4236.8 138848 4812.8 Q 139136 5676.8 139328 6060.8 L 148256 6060.8 L 148256 8460.8 L 126176 8460.8 Z M 145568 15084.8 L 128672 15084.8 L 128672 9420.8 L 145568 9420.8 L 145568 15084.8 Z M 125984 22476.8 L 125984 19980.8 L 136448 19980.8 L 136448 19692.8 L 140960 18444.8 L 127712 18444.8 L 127712 16044.8 L 146144 16044.8 L 146144 18636.8 L 141824 19980.8 L 148448 19980.8 L 148448 22476.8 L 139520 22476.8 L 139520 23532.8 Q 139520 26220.8 136544 26412.8 Q 135104 26412.8 132224 26412.8 Q 132032 25068.8 131552 23724.8 Q 132224 23724.8 133472 23820.8 Q 134624 23820.8 135200 23820.8 Q 136448 23820.8 136448 22476.8 L 125984 22476.8 Z M 163808 20652.8 L 165728 19404.8 L 160928 19404.8 Q 159776 20940.8 157952 22860.8 Q 159296 22860.8 163232 22764.8 Q 164576 22668.8 165344 22668.8 Q 164672 21612.8 163808 20652.8  Z M 161792 7404.8 Q 159968 9708.8 157184 11820.8 L 166208 11820.8 Q 163616 9804.8 161792 7404.8  Z M 160352 4140.8 L 164288 4140.8 L 163616 4908.8 Q 166592 9324.8 173216 12300.8 Q 172544 13068.8 171488 14508.8 Q 171200 14796.8 171104 14988.8 Q 169376 14124.8 167936 13068.8 L 167936 14604.8 L 155648 14604.8 L 155648 12972.8 Q 155168 13356.8 154016 14028.8 Q 153056 14604.8 152480 14988.8 Q 152096 14412.8 150752 12780.8 Q 151808 14028.8 150368 12204.8 Q 157856 8268.8 160352 4140.8  Z M 151328 19404.8 L 151328 16524.8 L 172256 16524.8 L 172256 19404.8 L 166592 19404.8 Q 167360 20364.8 168992 22380.8 Q 170528 24204.8 171296 25164.8 L 168512 26796.8 Q 168320 26604.8 168032 26124.8 Q 167648 25644.8 167456 25356.8 Q 167072 25356.8 166304 25356.8 Q 163136 25452.8 156608 25836.8 Q 156512 25836.8 156320 25836.8 Q 155648 25932.8 154208 26220.8 L 152768 23628.8 Q 154880 22188.8 156992 19404.8 L 151328 19404.8 Z M 15488 50950.4 L 15488 49318.4 L 5408 49318.4 Q 6656 46822.4 10592 43942.4 Q 15680 40486.4 15392 36742.4 Q 15008 31846.4 9632 31654.4 Q 4928 31558.4 3296 36262.4 L 5216 37222.4 Q 6272 33670.4 9248 33478.4 Q 13088 33574.4 13184 37030.4 Q 13280 39622.4 8960 42790.4 Q 4736 45862.4 2912 49702.4 L 2912 50950.4 L 15488 50950.4 Z M 19808 43846.4 Q 19904 49702.4 24416 49894.4 Q 28064 49702.4 28256 45094.4 Q 28160 40486.4 24416 40390.4 Q 20672 40582.4 19808 43846.4  Z M 30080 35974.4 L 28160 36646.4 Q 27392 33286.4 24512 33382.4 Q 19712 33478.4 19712 41350.4 Q 21248 38758.4 24704 38662.4 Q 30080 38950.4 30464 44902.4 Q 30080 50950.4 24416 51430.4 Q 17600 51430.4 17600 42118.4 Q 17696 31654.4 24608 31654.4 Q 28832 31846.4 30080 35974.4  Z M 35808.4 31648.4 L 37344.4 31648.4 L 37344.4 52311.2 L 35808.4 52311.2 L 35808.4 31648.4 Z M 36817.6 31648.4 L 50904.4 31648.4 L 50904.4 33040.4 L 36817.6 33040.4 L 36817.6 31648.4 Z M 50370.4 31648.4 L 51906.4 31648.4 L 51906.4 52312.4 L 50370.4 52312.4 L 50370.4 31648.4 Z M 36965.2 40504.4 L 50836 40504.4 L 50836 41896.4 L 36965.2 41896.4 L 36965.2 40504.4 Z M 36972.4 49384.4 L 50915.2 49384.4 L 50915.2 50776.4 L 36972.4 50776.4 L 36972.4 49384.4 Z M 72102.4 53734.4 L 73926.4 53734.4 Q 69414.4 48358.4 69510.4 41734.4 Q 69510.4 35206.4 73926.4 29446.4 L 72198.4 29446.4 Q 67590.4 35206.4 67494.4 41734.4 Q 67686.4 48454.4 72102.4 53734.4  Z M 82213.6 34301.6 L 103812.4 34301.6 L 103812.4 35597.6 L 82213.6 35597.6 L 82213.6 34301.6 Z M 86832.4 46714.4 L 99023.2 46714.4 L 99023.2 47914.4 L 86832.4 47914.4 L 86832.4 46714.4 Z M 92342.8 30100.4 L 93686.8 30100.4 L 93686.8 52563.2 L 92342.8 52563.2 L 92342.8 30100.4 Z M 92070.4 35052.8 L 92886.4 35368.4 Q 89070.4 43469.6 82806.4 48539.6 Q 82278.4 47836.4 81654.4 47302.4 Q 87774.4 42936.8 92070.4 35052.8  Z M 94006 34852.4 Q 97231.6 42212 104058.4 46818.8 Q 103544.8 47270 102866.8 48100.4 Q 96040 42806 93187.6 35090 L 94006 34852.4 Z M 112493.2 35445.2 L 123629.2 35445.2 L 123629.2 36693.2 L 112493.2 36693.2 L 112493.2 35445.2 Z M 111389.2 39381.2 L 124780 39381.2 L 124780 40629.2 L 111389.2 40629.2 L 111389.2 39381.2 Z M 117397.6 33436.4 L 118741.6 33436.4 L 118741.6 40156.4 L 117397.6 40156.4 L 117397.6 33436.4 Z M 109126 31106 L 126934 31106 L 126934 32402 L 109126 32402 L 109126 31106 Z M 126378.4 31106 L 127756 31106 L 127756 49322 Q 127756 52250 125023.6 52250 Q 123404.8 52274 121590.4 52250 Q 121470.4 51530 121228 50714 Q 123259.6 50858 124444 50858 Q 126354.4 50858 126378.4 49346 L 126378.4 31106 Z M 108414.4 31106 L 109806.4 31106 L 109806.4 41189.6 Q 109806.4 48399.2 107238.4 52368.8 Q 106686.4 51760.4 106086.4 51321.2 Q 108414.4 47375.6 108414.4 41189.6 L 108414.4 31106 Z M 113269.6 42843.2 L 114613.6 42843.2 L 114613.6 48963.2 L 113269.6 48963.2 L 113269.6 42843.2 Z M 114048.4 42843.2 L 122159.2 42843.2 L 122159.2 44091.2 L 114048.4 44091.2 L 114048.4 42843.2 Z M 121525.6 42843.2 L 122869.6 42843.2 L 122869.6 48963.2 L 121525.6 48963.2 L 121525.6 42843.2 Z M 114000.4 47715.2 L 122111.2 47715.2 L 122111.2 48963.2 L 114000.4 48963.2 L 114000.4 47715.2 Z M 134112.4 31648.4 L 135648.4 31648.4 L 135648.4 52311.2 L 134112.4 52311.2 L 134112.4 31648.4 Z M 135121.6 31648.4 L 149208.4 31648.4 L 149208.4 33040.4 L 135121.6 33040.4 L 135121.6 31648.4 Z M 148674.4 31648.4 L 150210.4 31648.4 L 150210.4 52312.4 L 148674.4 52312.4 L 148674.4 31648.4 Z M 135269.2 40504.4 L 149140 40504.4 L 149140 41896.4 L 135269.2 41896.4 L 135269.2 40504.4 Z M 135276.4 49384.4 L 149219.2 49384.4 L 149219.2 50776.4 L 135276.4 50776.4 L 135276.4 49384.4 Z M 161382.4 53734.4 L 163110.4 53734.4 Q 167526.4 48454.4 167718.4 41734.4 Q 167622.4 35206.4 163110.4 29446.4 L 161286.4 29446.4 Q 165702.4 35206.4 165702.4 41734.4 Q 165798.4 48262.4 161382.4 53734.4  Z M 181202.8 32385.2 L 182460.4 32385.2 L 182460.4 50456 L 181202.8 50456 L 181202.8 32385.2 Z M 181610.8 32385.2 L 186450.4 32385.2 L 186450.4 33522.8 L 181610.8 33522.8 L 181610.8 32385.2 Z M 185704 32385.2 L 186961.6 32385.2 L 186961.6 48914 L 185704 48914 L 185704 32385.2 Z M 181606 47776.4 L 186614.8 47776.4 L 186614.8 48914 L 181606 48914 L 181606 47776.4 Z M 181644.4 39950 L 186532 39950 L 186532 41087.6 L 181644.4 41087.6 L 181644.4 39950 Z M 188964.4 37373.6 L 190220.8 37373.6 L 190220.8 43928 L 188964.4 43928 L 188964.4 37373.6 Z M 189492.4 37373.6 L 200666.8 37373.6 L 200666.8 38570 L 189492.4 38570 L 189492.4 37373.6 Z M 200072.8 37373.6 L 201329.2 37373.6 L 201329.2 43928 L 200072.8 43928 L 200072.8 37373.6 Z M 189559.6 42731.6 L 200734 42731.6 L 200734 43928 L 189559.6 43928 L 189559.6 42731.6 Z M 191530 32805.2 L 198822.4 32805.2 L 198822.4 34001.6 L 191530 34001.6 L 191530 32805.2 Z M 198516.4 32805.2 L 199213.6 32805.2 L 199213.6 33988.4 L 195990.4 38451.2 L 194770 38081.6 L 198516.4 32805.2 Z M 192690.4 30190.4 L 193990 30600.8 Q 191905.6 34448 189467.2 36960.8 Q 189197.2 36550.4 188628.4 35883.2 Q 191281.6 33190.4 192690.4 30190.4  Z M 194474.8 37791.2 L 195708.4 37791.2 Q 195708.4 40973.6 195236.8 43365.2 Q 194160.4 49632.8 187764.4 52743.2 Q 187338.4 52001.6 186845.2 51450.8 Q 192701.2 49083.2 193913.2 43365.2 Q 194474.8 41092.4 194474.8 37791.2  Z M 194969.2 44997.2 L 196196.8 44997.2 L 196196.8 49618.4 Q 196196.8 51006.8 197448.4 51006.8 L 199880.8 51006.8 Q 201085.6 51006.8 201416.8 49794.8 Q 201629.2 48708.8 201746.8 47320.4 Q 202314.4 47598.8 203069.2 47850.8 Q 202880.8 49138.4 202620.4 50224.4 Q 202100.8 52269.2 199999.6 52269.2 L 197424.4 52269.2 Q 194969.2 52269.2 194969.2 49694 L 194969.2 44997.2 Z M 219606.4 31078.4 Q 220134.4 45670.4 227070.4 50398.4 Q 226422.4 51118.4 225798.4 51886.4 Q 218622.4 46222.4 218094.4 31198.4 L 219606.4 31078.4 Z M 211542.4 31438.4 L 213078.4 31582.4 Q 212454.4 45766.4 205686.4 52078.4 Q 205134.4 51430.4 204486.4 50878.4 Q 210966.4 44878.4 211542.4 31438.4  Z M 240445.6 32946.8 L 251365.6 32946.8 L 251365.6 34146.8 L 240445.6 34146.8 L 240445.6 32946.8 Z M 239472.4 30119.6 L 240864.4 30119.6 L 240864.4 38543.6 L 239472.4 38543.6 L 239472.4 30119.6 Z M 237354.4 47007.2 Q 238307.2 49269.2 239166.4 51635.6 L 237830.8 52071.2 Q 236996.8 49581.2 236114.8 47422.4 L 237354.4 47007.2 Z M 242909.2 46883.6 Q 243911.2 49083.2 244816 51406.4 L 243481.6 51843.2 Q 242575.6 49331.6 241669.6 47298.8 L 242909.2 46883.6 Z M 248440 46799.6 Q 249918.4 49124 251348.8 51656 L 250014.4 52216.4 Q 248630.8 49539.2 247200.4 47339.6 L 248440 46799.6 Z M 233658.4 47422.4 Q 232157.2 50099.6 230534.8 52319.6 L 229295.2 51614 Q 231083.2 49373.6 232418.8 46883.6 L 233658.4 47422.4 Z M 232093.6 37996.4 L 233419.6 37996.4 L 233419.6 45293.6 L 232093.6 45293.6 L 232093.6 37996.4 Z M 232813.6 37996.4 L 248508.4 37996.4 L 248508.4 39332 L 232813.6 39332 L 232813.6 37996.4 Z M 247903.6 37996.4 L 249229.6 37996.4 L 249229.6 45293.6 L 247903.6 45293.6 L 247903.6 37996.4 Z M 232836.4 43958 L 248531.2 43958 L 248531.2 45293.6 L 232836.4 45293.6 L 232836.4 43958 Z M 254399.2 31481.6 L 275686 31481.6 L 275686 32729.6 L 254399.2 32729.6 L 254399.2 31481.6 Z M 269272 34374.8 Q 272414.8 37413.2 275377.6 40587.2 L 274075.6 41516 Q 271112.8 38129.6 268081.6 35129.6 L 269272 34374.8 Z M 263988.4 31456.4 L 265423.6 32200.4 Q 261776.8 36034.4 258108.4 39036.8 Q 263988.4 38838.8 272466.4 38488.4 Q 272990.8 39058.4 273538 39650 Q 265400.8 39956 258221.2 40329.2 Q 257059.6 40394 256056.4 40613.6 L 255440.8 39124.4 Q 256421.2 38795.6 257173.6 38225.6 Q 260843.2 35312 263988.4 31456.4  Z M 255566.8 43954.4 L 274588 43954.4 L 274588 45244.4 L 255566.8 45244.4 L 255566.8 43954.4 Z M 253594 49890.8 L 276632.8 49890.8 L 276632.8 51180.8 L 253594 51180.8 L 253594 49890.8 Z M 264336.4 41178.8 L 265769.2 41178.8 L 265769.2 50421.2 L 264336.4 50421.2 L 264336.4 41178.8 Z M 278993.2 34990.4 L 294545.2 34990.4 L 294545.2 36286.4 L 278993.2 36286.4 L 278993.2 34990.4 Z M 285570.4 30323.6 L 287126.8 30323.6 Q 287126.8 35294 287057.2 38117.6 Q 286940.8 43450.4 285547.6 46370 Q 283759.6 49941.2 279510.4 52282.4 Q 279068.8 51557.6 278534.8 50834 Q 282458.8 48711.2 284084.8 45766.4 Q 285431.2 43088 285524.8 38189.6 Q 285594.4 35150 285570.4 30323.6  Z M 293062 35296.4 L 294522.4 35296.4 L 294522.4 48629.6 Q 294578.8 50193.2 296011.6 50357.6 L 297670 50357.6 Q 299018.8 50193.2 299243.2 48683.6 Q 299440 47120 299524 45665.6 Q 300254.8 46023.2 301097.2 46352 Q 300956.8 47888 300732.4 49040 Q 300311.2 51784.4 297500.8 51784.4 L 295843.6 51784.4 Q 293034.4 51784.4 293062 48683.6 L 293062 35296.4 Z M 314173.6 32946.8 L 325093.6 32946.8 L 325093.6 34146.8 L 314173.6 34146.8 L 314173.6 32946.8 Z M 313200.4 30119.6 L 314592.4 30119.6 L 314592.4 38543.6 L 313200.4 38543.6 L 313200.4 30119.6 Z M 311082.4 47007.2 Q 312035.2 49269.2 312894.4 51635.6 L 311558.8 52071.2 Q 310724.8 49581.2 309842.8 47422.4 L 311082.4 47007.2 Z M 316637.2 46883.6 Q 317639.2 49083.2 318544 51406.4 L 317209.6 51843.2 Q 316303.6 49331.6 315397.6 47298.8 L 316637.2 46883.6 Z M 322168 46799.6 Q 323646.4 49124 325076.8 51656 L 323742.4 52216.4 Q 322358.8 49539.2 320928.4 47339.6 L 322168 46799.6 Z M 307386.4 47422.4 Q 305885.2 50099.6 304262.8 52319.6 L 303023.2 51614 Q 304811.2 49373.6 306146.8 46883.6 L 307386.4 47422.4 Z M 305821.6 37996.4 L 307147.6 37996.4 L 307147.6 45293.6 L 305821.6 45293.6 L 305821.6 37996.4 Z M 306541.6 37996.4 L 322236.4 37996.4 L 322236.4 39332 L 306541.6 39332 L 306541.6 37996.4 Z M 321631.6 37996.4 L 322957.6 37996.4 L 322957.6 45293.6 L 321631.6 45293.6 L 321631.6 37996.4 Z M 306564.4 43958 L 322259.2 43958 L 322259.2 45293.6 L 306564.4 45293.6 L 306564.4 43958 Z M 328480 38699.6 L 349094.8 38699.6 L 349094.8 40019.6 L 328480 40019.6 L 328480 38699.6 Z M 327533.2 44507.6 L 349996 44507.6 L 349996 45827.6 L 327533.2 45827.6 L 327533.2 44507.6 Z M 338018.8 30249.2 L 339506.8 30249.2 L 339506.8 52592 L 338018.8 52592 L 338018.8 30249.2 Z M 330661.6 31665.2 Q 332236 33357.2 334462 35760.8 L 333132.4 36897.2 Q 331068.4 34466 329494 32643.2 L 330661.6 31665.2 Z M 346974.4 31726.4 L 348150.4 32638.4 Q 346230.4 34750.4 343878.4 36982.4 L 342846.4 35950.4 Q 345078.4 33814.4 346974.4 31726.4  Z M 11360 66739.2 L 6080 66739.2 L 6080 73939.2 L 11744 73939.2 Q 16256 73939.2 16256 70195.2 Q 15968 66931.2 11360 66739.2  Z M 11072 58387.2 L 6080 58387.2 L 6080 64819.2 L 11072 64819.2 Q 15008 64627.2 15392 61363.2 Q 15200 58483.2 11072 58387.2  Z M 12032 75667.2 L 4064 75667.2 L 4064 56467.2 L 11552 56467.2 Q 17312 56755.2 17696 61267.2 Q 17408 64819.2 13856 65491.2 L 13856 65587.2 Q 18176 66259.2 18464 70483.2 Q 18176 75475.2 12032 75667.2  Z M 21131.6 59689.2 L 30275.6 59689.2 L 30275.6 60937.2 L 21131.6 60937.2 L 21131.6 59689.2 Z M 25088 54621.6 Q 25956.8 56295.6 26717.6 58048.8 L 25359.2 58580.4 Q 24815.6 57145.2 23837.6 55125.6 L 25088 54621.6 Z M 23056.4 62962.8 Q 24111.2 66462 25030.4 70039.2 L 23705.6 70402.8 Q 22866.8 66694.8 21838.4 63300 L 23056.4 62962.8 Z M 28112 62692.8 L 29433.2 62973.6 Q 28089.2 69249.6 26628.8 73300.8 Q 26049.2 72949.2 25377.2 72715.2 Q 27278 67774.8 28112 62692.8  Z M 30095.6 71896.8 Q 30063.2 72493.2 29999.6 73315.2 Q 25594.4 73968 21156.8 74704.8 L 20903.6 73315.2 Q 23502.8 72946.8 30095.6 71896.8  Z M 31216.4 66330 L 32426 66330 L 32426 77010 L 31216.4 77010 L 31216.4 66330 Z M 32052.8 66330 L 41484.8 66330 L 41484.8 67578 L 32052.8 67578 L 32052.8 66330 Z M 40857.2 66330 L 42068 66330 L 42068 77010 L 40857.2 77010 L 40857.2 66330 Z M 32116.4 74298 L 41547.2 74298 L 41547.2 75546 L 32116.4 75546 L 32116.4 74298 Z M 36287.6 59242.8 L 43529.6 59242.8 L 43529.6 60538.8 L 36287.6 60538.8 L 36287.6 59242.8 Z M 35681.6 54736.8 L 36892.4 54736.8 L 36892.4 67215.6 L 35681.6 67215.6 L 35681.6 54736.8 Z M 48590 60453.6 L 49982 60453.6 L 49982 75525.6 L 48590 75525.6 L 48590 60453.6 Z M 49126.4 60453.6 L 64030.4 60453.6 L 64030.4 61653.6 L 49126.4 61653.6 L 49126.4 60453.6 Z M 63326 60453.6 L 64718 60453.6 L 64718 75597.6 L 63326 75597.6 L 63326 60453.6 Z M 45497.6 74959.2 L 68009.6 74959.2 L 68009.6 76159.2 L 45497.6 76159.2 L 45497.6 74959.2 Z M 49246.4 64108.8 L 64150.4 64108.8 L 64150.4 65260.8 L 49246.4 65260.8 L 49246.4 64108.8 Z M 49270.4 67708.8 L 64174.4 67708.8 L 64174.4 68860.8 L 49270.4 68860.8 L 49270.4 67708.8 Z M 49294.4 71308.8 L 64198.4 71308.8 L 64198.4 72460.8 L 49294.4 72460.8 L 49294.4 71308.8 Z M 45958.4 56719.2 L 67558.4 56719.2 L 67558.4 57919.2 L 45958.4 57919.2 L 45958.4 56719.2 Z M 55935.2 54666 L 57351.2 54666 L 57351.2 60858 L 55935.2 60858 L 55935.2 54666 Z M 70041.2 59200.8 L 76643.6 59200.8 L 76643.6 60387.6 L 70041.2 60387.6 L 70041.2 59200.8 Z M 72905.6 54793.2 L 74252 54793.2 L 74252 74581.2 Q 74252 76224 72641.6 76578 Q 72027.2 76704 70212.8 76678.8 Q 70125.2 76022.4 69920 75264 Q 71237.6 75364.8 71939.6 75364.8 Q 72905.6 75364.8 72905.6 74354.4 L 72905.6 54793.2 Z M 76564.4 64665.6 Q 76587.2 65268 76632.8 65970 Q 73262 67074 70097.6 68227.2 L 69938 66823.2 Q 73239.2 65820 76564.4 64665.6  Z M 78346.4 67444.8 L 79518.8 67444.8 L 79518.8 77047.2 L 78346.4 77047.2 L 78346.4 67444.8 Z M 79032.8 67444.8 L 90482 67444.8 L 90482 68546.4 L 79032.8 68546.4 L 79032.8 67444.8 Z M 89726 67444.8 L 90898.4 67444.8 L 90898.4 77047.2 L 89726 77047.2 L 89726 67444.8 Z M 79118 74868 L 90176 74868 L 90176 75969.6 L 79118 75969.6 L 79118 74868 Z M 79174.4 71187.6 L 90141.2 71187.6 L 90141.2 72241.2 L 79174.4 72241.2 L 79174.4 71187.6 Z M 76838 61381.2 L 92495.6 61381.2 L 92495.6 62530.8 L 76838 62530.8 L 76838 61381.2 Z M 83986.4 56866.8 L 85136 56866.8 L 85136 66541.2 L 83986.4 66541.2 L 83986.4 56866.8 Z M 84030.8 67916.4 L 85180.4 67916.4 L 85180.4 75507.6 L 84030.8 75507.6 L 84030.8 67916.4 Z M 91260.8 55495.2 L 91778 56641.2 Q 84588.8 57180 77950.4 57554.4 Q 77788.4 56970 77432 56337.6 Q 84524 56032.8 91260.8 55495.2  Z M 79278.8 57955.2 Q 80552 59044.8 81623.6 59992.8 L 80714 60879.6 Q 79623.2 59791.2 78450.8 58742.4 L 79278.8 57955.2 Z M 89891.6 57891.6 L 90803.6 58778.4 Q 89516 59942.4 88202 60884.4 L 87424.4 59887.2 Q 88684.4 58999.2 89891.6 57891.6  Z M 82880 61567.2 L 84120.8 61567.2 L 84120.8 62772 Q 81293.6 65922 76995.2 67936.8 Q 76948.4 67844.4 76259.6 66802.8 Q 79983.2 65319.6 82880 62494.8 L 82880 61567.2 Z M 85556 61569.6 Q 88377.2 65210.4 92597.6 66256.8 Q 92145.2 66916.8 91815.2 67532.4 Q 87224 65847.6 84711.2 62024.4 L 85556 61569.6 Z M 111886.4 65236.8 L 129284 65236.8 L 129284 66532.8 L 111886.4 66532.8 L 111886.4 65236.8 Z M 116457.2 69164.4 L 126153.2 69164.4 L 126153.2 70412.4 L 116457.2 70412.4 L 116457.2 69164.4 Z M 125346.8 69164.4 L 126833.6 69164.4 Q 126710 72196.8 126586.4 73784.4 Q 126363.2 76604.4 123389.6 76604.4 Q 122522 76604.4 120390.8 76604.4 Q 120242 75727.2 120018.8 75206.4 Q 122298.8 75277.2 123339.2 75277.2 Q 125025.2 75277.2 125148.8 73310.4 Q 125248.4 72174 125346.8 69164.4  Z M 119973.2 62914.8 Q 121078.4 64353.6 121863.2 65492.4 L 120717.2 66250.8 Q 119952.8 65053.2 118887.2 63614.4 L 119973.2 62914.8 Z M 115853.6 66170.4 L 117298.4 66170.4 Q 117298.4 69814.8 116536.4 72064.8 Q 115617.2 74997.6 112150.4 77162.4 Q 111861.2 76677.6 111178.4 75880.8 Q 114094.4 74172 115040 71979.6 Q 115827.2 69673.2 115853.6 66170.4  Z M 109952 57043.2 L 127278.8 57043.2 L 127278.8 58290 L 109952 58290 L 109952 57043.2 Z M 126492.8 57043.2 L 127817.6 57043.2 L 127817.6 62557.2 L 126492.8 62557.2 L 126492.8 57043.2 Z M 110018 61310.4 L 127132.4 61310.4 L 127132.4 62557.2 L 110018 62557.2 L 110018 61310.4 Z M 109305.2 57043.2 L 110674.4 57043.2 L 110674.4 65325.6 Q 110674.4 72762 108033.2 76915.2 Q 107519.6 76287.6 106982 75732 Q 109305.2 72038.4 109305.2 65301.6 L 109305.2 57043.2 Z M 118253.6 54684 Q 119132 56072.4 119901.2 57526.8 L 118528.4 57967.2 Q 117978.8 56778 116990 55102.8 L 118253.6 54684 Z M 132599.6 59150.4 L 133899.2 59150.4 L 133899.2 77014.8 L 132599.6 77014.8 L 132599.6 59150.4 Z M 139954.4 56050.8 L 152343.2 56050.8 L 152343.2 57302.4 L 139954.4 57302.4 L 139954.4 56050.8 Z M 151755.2 56050.8 L 153042.8 56050.8 L 153042.8 74476.8 Q 153042.8 77020.8 150617.6 77020.8 Q 149331.2 77020.8 148094 76975.2 Q 148044.8 76677.6 147846.8 75645.6 Q 149256.8 75760.8 150506 75760.8 Q 151755.2 75760.8 151755.2 74317.2 L 151755.2 56050.8 Z M 134817.2 54590.4 Q 136342.4 55998 137553.2 57268.8 L 136588.4 58153.2 Q 135423.2 56815.2 133920.8 55384.8 L 134817.2 54590.4 Z M 138072.8 60912 L 139415.6 60912 L 139415.6 72168 L 138072.8 72168 L 138072.8 60912 Z M 138848 60912 L 146912 60912 L 146912 62160 L 138848 62160 L 138848 60912 Z M 146112.8 60912 L 147455.6 60912 L 147455.6 72168 L 146112.8 72168 L 146112.8 60912 Z M 138824 70920 L 146888 70920 L 146888 72168 L 138824 72168 L 138824 70920 Z M 138728 65911.2 L 146792 65911.2 L 146792 67111.2 L 138728 67111.2 L 138728 65911.2 Z M 155993.6 64795.2 L 178649.6 64795.2 L 178649.6 66091.2 L 155993.6 66091.2 L 155993.6 64795.2 Z M 161187.2 65342.4 L 162670.4 65342.4 L 161369.6 69086.4 L 161369.6 70094.4 L 159910.4 70094.4 L 159910.4 68798.4 L 161187.2 65342.4 Z M 160726.4 68798.4 L 174478.4 68798.4 L 174478.4 70094.4 L 160726.4 70094.4 L 160726.4 68798.4 Z M 173921.6 68798.4 L 175361.6 68798.4 Q 175145.6 71270.4 174929.6 72974.4 Q 174473.6 76622.4 170609.6 76622.4 Q 168041.6 76622.4 165233.6 76526.4 Q 165113.6 75830.4 164849.6 74918.4 Q 167921.6 75206.4 170681.6 75206.4 Q 173153.6 75206.4 173489.6 72974.4 Q 173681.6 71870.4 173921.6 68798.4  Z M 159312.8 55819.2 L 160708.4 55819.2 L 160708.4 62682 L 159312.8 62682 L 159312.8 55819.2 Z M 159983.6 55819.2 L 174954.8 55819.2 L 174954.8 57079.2 L 159983.6 57079.2 L 159983.6 55819.2 Z M 174284 55819.2 L 175680.8 55819.2 L 175680.8 62682 L 174284 62682 L 174284 55819.2 Z M 160055.6 61422 L 175028 61422 L 175028 62682 L 160055.6 62682 L 160055.6 61422 Z M 191321.6 63955.2 Q 191321.6 57907.2 186713.6 58003.2 Q 183065.6 58291.2 182777.6 62707.2 Q 182969.6 67123.2 186713.6 67411.2 Q 190457.6 67411.2 191321.6 63955.2  Z M 181145.6 71827.2 L 183161.6 71155.2 Q 183833.6 74515.2 186713.6 74419.2 Q 191225.6 74227.2 191321.6 66451.2 Q 189881.6 69235.2 186521.6 69235.2 Q 181145.6 68755.2 180665.6 62899.2 Q 181049.6 56659.2 186905.6 56179.2 Q 193625.6 56083.2 193529.6 65683.2 Q 193529.6 75859.2 186521.6 75955.2 Q 182297.6 75763.2 181145.6 71827.2  Z M 198592 64339.2 L 199168 58483.2 L 207424 58483.2 L 207424 56563.2 L 197536 56563.2 L 196384 66643.2 L 197824 66931.2 Q 199072 64915.2 202048 64819.2 Q 206080 65011.2 206272 69427.2 Q 206080 74131.2 201952 74323.2 Q 198304 74227.2 197728 70195.2 L 195616 70771.2 Q 196672 75955.2 202144 75955.2 Q 208192 75763.2 208384 69235.2 Q 208000 63187.2 202432 62899.2 Q 200320 62899.2 198592 64339.2  Z M 213337.6 64339.2 L 213913.6 58483.2 L 222169.6 58483.2 L 222169.6 56563.2 L 212281.6 56563.2 L 211129.6 66643.2 L 212569.6 66931.2 Q 213817.6 64915.2 216793.6 64819.2 Q 220825.6 65011.2 221017.6 69427.2 Q 220825.6 74131.2 216697.6 74323.2 Q 213049.6 74227.2 212473.6 70195.2 L 210361.6 70771.2 Q 211417.6 75955.2 216889.6 75955.2 Q 222937.6 75763.2 223129.6 69235.2 Q 222745.6 63187.2 217177.6 62899.2 Q 215065.6 62899.2 213337.6 64339.2  Z M 235763.2 63955.2 Q 235763.2 57907.2 231155.2 58003.2 Q 227507.2 58291.2 227219.2 62707.2 Q 227411.2 67123.2 231155.2 67411.2 Q 234899.2 67411.2 235763.2 63955.2  Z M 225587.2 71827.2 L 227603.2 71155.2 Q 228275.2 74515.2 231155.2 74419.2 Q 235667.2 74227.2 235763.2 66451.2 Q 234323.2 69235.2 230963.2 69235.2 Q 225587.2 68755.2 225107.2 62899.2 Q 225491.2 56659.2 231347.2 56179.2 Q 238067.2 56083.2 237971.2 65683.2 Q 237971.2 75859.2 230963.2 75955.2 Q 226739.2 75763.2 225587.2 71827.2  Z M 243033.6 64339.2 L 243609.6 58483.2 L 251865.6 58483.2 L 251865.6 56563.2 L 241977.6 56563.2 L 240825.6 66643.2 L 242265.6 66931.2 Q 243513.6 64915.2 246489.6 64819.2 Q 250521.6 65011.2 250713.6 69427.2 Q 250521.6 74131.2 246393.6 74323.2 Q 242745.6 74227.2 242169.6 70195.2 L 240057.6 70771.2 Q 241113.6 75955.2 246585.6 75955.2 Q 252633.6 75763.2 252825.6 69235.2 Q 252441.6 63187.2 246873.6 62899.2 Q 244761.6 62899.2 243033.6 64339.2  Z M 265459.2 63955.2 Q 265459.2 57907.2 260851.2 58003.2 Q 257203.2 58291.2 256915.2 62707.2 Q 257107.2 67123.2 260851.2 67411.2 Q 264595.2 67411.2 265459.2 63955.2  Z M 255283.2 71827.2 L 257299.2 71155.2 Q 257971.2 74515.2 260851.2 74419.2 Q 265363.2 74227.2 265459.2 66451.2 Q 264019.2 69235.2 260659.2 69235.2 Q 255283.2 68755.2 254803.2 62899.2 Q 255187.2 56659.2 261043.2 56179.2 Q 267763.2 56083.2 267667.2 65683.2 Q 267667.2 75859.2 260659.2 75955.2 Q 256435.2 75763.2 255283.2 71827.2  Z M 282425.6 57907.2 L 282425.6 56563.2 L 269945.6 56563.2 L 269945.6 58483.2 L 279833.6 58483.2 Q 274073.6 66931.2 272633.6 75667.2 L 274937.6 75667.2 Q 276185.6 66547.2 282425.6 57907.2  Z " fill-rule="nonzero" style="fill:#c4a256;;fill-opacity:1;"/>
</svg>