<svg version="1.1" x="0" y="0" width="100%" height="100%" viewBox="0 0 253849.6 32204.8" xmlns="http://www.w3.org/2000/svg">
  <path d="M 20000 6348.8 L 21920 4524.8 Q 23456 5964.8 25280 7788.8 L 23264 9804.8 Q 22688 9228.8 21632 8076.8 Q 20480 6924.8 20000 6348.8  Z M 15104 5772.8 L 15104 8460.8 L 4832 8460.8 L 4832 5772.8 L 15104 5772.8 Z M 16448 16044.8 L 16448 18636.8 L 12704 18636.8 L 12704 21804.8 Q 14816 21708.8 13184 21804.8 Q 14816 21708.8 17120 21420.8 Q 16928 22380.8 16832 24012.8 Q 16736 24204.8 16736 24396.8 Q 15488 24492.8 13184 24780.8 Q 9344 25068.8 3584 25740.8 L 3104 22668.8 Q 3392 22668.8 3968 22572.8 Q 4640 22572.8 4928 22476.8 L 4928 14796.8 L 7808 14796.8 L 7808 22284.8 Q 8096 22188.8 8672 22188.8 Q 9248 22092.8 9536 22092.8 L 9536 13548.8 L 12704 13548.8 L 12704 16044.8 L 16448 16044.8 Z M 3200 13068.8 L 3200 10188.8 L 16736 10188.8 Q 16640 9228.8 16640 7212.8 Q 16544 5196.8 16544 4236.8 L 19712 4236.8 Q 19712 7020.8 19808 10188.8 L 25568 10188.8 L 25568 13068.8 L 19904 13068.8 Q 20384 20268.8 22016 23052.8 Q 22304 23436.8 22496 23436.8 Q 22880 23436.8 22976 22860.8 Q 23168 21804.8 23168 19404.8 Q 24320 19980.8 25664 20364.8 Q 25472 23628.8 24896 25068.8 Q 24224 26508.8 22592 26508.8 Q 20864 26508.8 19904 25548.8 Q 17312 23148.8 16832 13068.8 L 3200 13068.8 Z M 28352 6828.8 L 30272 4716.8 Q 32192 6156.8 34304 7980.8 L 32192 10188.8 Q 31616 9708.8 30464 8748.8 Q 29024 7404.8 28352 6828.8  Z M 27488 12684.8 L 29408 10380.8 Q 30560 11244.8 32384 12780.8 Q 33440 13548.8 33920 13932.8 L 31808 16236.8 Q 31232 15756.8 31424 15948.8 Q 29120 13932.8 27488 12684.8  Z M 30656 16908.8 Q 32384 17580.8 33632 18060.8 Q 33056 19980.8 32000 23052.8 Q 31136 25548.8 30848 26412.8 Q 29312 25836.8 27680 25356.8 Q 29216 21804.8 30656 16908.8  Z M 35072 9708.8 L 38144 8460.8 Q 39296 13740.8 41792 17196.8 Q 44384 13740.8 45536 8172.8 L 34688 8172.8 L 34688 5292.8 L 48896 5292.8 L 48896 8172.8 Q 47744 15084.8 44288 19788.8 Q 46592 21804.8 50336 23340.8 Q 48992 24684.8 48128 26316.8 Q 43904 24204.8 41792 22284.8 Q 39008 24588.8 34976 26604.8 Q 34112 25164.8 32768 23820.8 Q 36704 21900.8 39392 19596.8 Q 36512 15756.8 35072 9708.8  Z M 52544 13164.8 L 52544 9996.8 L 61568 9996.8 Q 61760 7500.8 61760 4236.8 L 65216 4236.8 Q 65216 5292.8 65120 7116.8 Q 65120 9132.8 65024 9996.8 L 74432 9996.8 L 74432 13164.8 L 65216 13164.8 Q 67232 20844.8 74816 23436.8 Q 73088 25068.8 72128 26412.8 Q 65792 23436.8 63488 17196.8 Q 61568 23052.8 54752 26508.8 Q 54656 26412.8 54368 26028.8 Q 53120 24588.8 52160 23820.8 Q 60512 20076.8 61280 13164.8 L 52544 13164.8 Z M 79136 5772.8 L 81536 4140.8 Q 82976 5676.8 84416 7596.8 L 83360 8268.8 L 87200 8268.8 Q 86816 7596.8 86048 6348.8 Q 85568 5580.8 85376 5196.8 L 88160 3948.8 Q 88448 4332.8 89024 5388.8 Q 89888 6732.8 90368 7500.8 L 88736 8268.8 L 91520 8268.8 Q 92384 7116.8 93728 5004.8 Q 94016 4524.8 94208 4332.8 L 97280 6060.8 Q 96992 6444.8 96416 7116.8 Q 95744 7884.8 95456 8268.8 L 98720 8268.8 L 98720 13932.8 L 95552 13932.8 L 95552 11052.8 L 80576 11052.8 L 80576 13932.8 L 77408 13932.8 L 77408 8268.8 L 81152 8268.8 Q 80192 6924.8 79136 5772.8  Z M 77024 20844.8 L 77024 18060.8 L 87008 18060.8 L 87008 17484.8 L 90080 15468.8 L 81728 15468.8 L 81728 12684.8 L 94592 12684.8 L 94592 15468.8 L 90656 18060.8 L 99104 18060.8 L 99104 20844.8 L 90272 20844.8 L 90272 23244.8 Q 90272 26220.8 87104 26316.8 Q 84896 26412.8 82976 26412.8 Q 82688 24780.8 82208 23532.8 Q 83936 23628.8 85376 23628.8 Q 87008 23628.8 87008 22284.8 L 87008 20844.8 L 77024 20844.8 Z M 112928 13548.8 L 114272 12204.8 L 111872 12204.8 L 111488 15468.8 L 115328 15468.8 Q 113984 14316.8 112928 13548.8  Z M 117536 19596.8 L 116096 20940.8 L 118976 20940.8 Q 118976 19500.8 119072 17772.8 L 114848 17772.8 Q 115232 17964.8 116288 18732.8 Q 117056 19308.8 117536 19596.8  Z M 117536 13932.8 L 116096 15468.8 L 119072 15468.8 Q 119072 13932.8 119168 12204.8 L 114944 12204.8 Q 115328 12396.8 116192 13068.8 Q 117056 13644.8 117536 13932.8  Z M 112832 19116.8 L 114272 17772.8 L 111296 17772.8 L 111008 20940.8 L 115232 20940.8 Q 113984 19980.8 112832 19116.8  Z M 101888 6348.8 L 103904 4236.8 Q 105632 5484.8 107552 7116.8 L 105440 9420.8 Q 104672 8652.8 102944 7212.8 Q 102272 6636.8 101888 6348.8  Z M 101312 12492.8 L 103136 10284.8 Q 104864 11532.8 106784 13164.8 L 104672 15660.8 Q 104000 14892.8 101312 12492.8  Z M 104000 17100.8 Q 104768 17484.8 106592 18060.8 Q 106784 18156.8 106880 18156.8 Q 106592 19308.8 106016 21612.8 Q 105248 24780.8 104768 26412.8 Q 104480 26316.8 103904 26124.8 Q 102464 25644.8 101792 25548.8 Q 102944 21996.8 104000 17100.8  Z M 106400 17772.8 L 106400 15468.8 L 108512 15468.8 L 108896 11820.8 Q 108320 12300.8 107744 12876.8 Q 106976 11820.8 105920 10476.8 Q 108992 7404.8 110432 4140.8 L 113696 4620.8 Q 113504 4908.8 113120 5580.8 Q 113024 5772.8 113024 5868.8 L 123488 5868.8 L 123488 8364.8 L 111488 8364.8 Q 111296 8652.8 110912 9228.8 Q 110624 9612.8 110432 9900.8 L 122240 9900.8 Q 122144 12684.8 122144 15468.8 L 123968 15468.8 L 123968 17772.8 L 122144 17772.8 Q 122048 19308.8 122048 20940.8 L 123776 20940.8 L 123776 23244.8 L 121952 23244.8 Q 121952 24780.8 121184 25452.8 Q 120608 26220.8 118784 26316.8 Q 117920 26412.8 114368 26412.8 Q 114272 26028.8 114080 25260.8 Q 113792 24492.8 113696 24108.8 Q 115904 24108.8 117152 24108.8 Q 118304 24108.8 118688 24012.8 Q 118880 23724.8 118880 23244.8 L 107744 23244.8 L 108224 17772.8 L 106400 17772.8 Z M 130304 11340.8 L 130304 16236.8 L 135488 16236.8 L 135488 11340.8 L 130304 11340.8 Z M 144032 16236.8 L 144032 11340.8 L 138944 11340.8 L 138944 16236.8 L 144032 16236.8 Z M 135488 8172.8 L 135488 4140.8 L 138944 4140.8 L 138944 8172.8 L 147488 8172.8 L 147488 21036.8 L 144032 21036.8 L 144032 19404.8 L 138944 19404.8 L 138944 26604.8 L 135488 26604.8 L 135488 19404.8 L 130304 19404.8 L 130304 21036.8 L 126944 21036.8 L 126944 8172.8 L 135488 8172.8 Z M 166592 12492.8 L 168416 10476.8 Q 169664 11340.8 172064 13260.8 Q 172928 13932.8 173312 14220.8 L 171488 16620.8 Q 168512 13932.8 166592 12492.8  Z M 159008 10188.8 L 159008 7404.8 L 164864 7404.8 Q 164000 5964.8 163328 5004.8 L 166304 4044.8 Q 167072 5196.8 168032 7020.8 L 166880 7404.8 L 172736 7404.8 L 172736 10188.8 L 159008 10188.8 Z M 160832 16428.8 L 163520 15180.8 Q 164384 17196.8 165728 18732.8 Q 166880 17004.8 167744 15180.8 L 170528 16236.8 Q 169472 18828.8 167840 20844.8 Q 170048 22668.8 173312 23628.8 Q 172160 25164.8 171392 26508.8 Q 168032 25356.8 165536 23244.8 Q 162944 25260.8 159392 26700.8 Q 158624 25356.8 157472 24012.8 Q 161408 22764.8 163520 20940.8 Q 162080 19020.8 160832 16428.8  Z M 150368 17196.8 Q 152096 14316.8 153056 11148.8 L 150560 11148.8 L 150560 8172.8 L 153248 8172.8 L 153248 4236.8 L 156128 4236.8 L 156128 8172.8 L 158336 8172.8 L 158336 11148.8 L 156128 11148.8 L 156128 12204.8 Q 156512 12492.8 157280 13164.8 Q 158048 13740.8 158432 14124.8 Q 160736 12588.8 162752 10572.8 L 164864 12396.8 Q 162848 14604.8 159968 16620.8 Q 159392 16044.8 159008 15468.8 L 157472 17292.8 Q 157184 16908.8 156608 16140.8 Q 156320 15852.8 156128 15660.8 L 156128 26508.8 L 153248 26508.8 L 153248 17100.8 Q 152384 19212.8 151136 21420.8 Q 151040 20652.8 150752 19308.8 Q 150560 17868.8 150368 17196.8  Z M 183776 12396.8 L 195776 12396.8 L 195776 15180.8 Q 194048 18732.8 191264 21324.8 Q 194048 22764.8 197792 23436.8 Q 196832 24492.8 195872 26508.8 Q 191840 25356.8 188576 23532.8 Q 185216 25452.8 181376 26604.8 Q 180512 24876.8 179552 23820.8 Q 183200 22956.8 185888 21324.8 Q 184256 19596.8 182816 17484.8 L 185024 15564.8 Q 186464 17868.8 188576 19596.8 Q 190784 17676.8 192224 15276.8 L 183008 15276.8 Q 180896 21900.8 176672 25836.8 Q 176096 24492.8 174944 22764.8 Q 179264 18156.8 180896 9900.8 L 175616 9900.8 L 175616 7020.8 L 181376 7020.8 Q 181568 5676.8 181664 4236.8 L 185120 4236.8 Q 185024 5676.8 184832 7020.8 L 197408 7020.8 L 197408 9900.8 L 184352 9900.8 Q 184064 11244.8 183776 12396.8  Z M 212960 20652.8 L 214880 19404.8 L 210080 19404.8 Q 208928 20940.8 207104 22860.8 Q 208448 22860.8 212384 22764.8 Q 213728 22668.8 214496 22668.8 Q 213824 21612.8 212960 20652.8  Z M 210944 7404.8 Q 209120 9708.8 206336 11820.8 L 215360 11820.8 Q 212768 9804.8 210944 7404.8  Z M 209504 4140.8 L 213440 4140.8 L 212768 4908.8 Q 215744 9324.8 222368 12300.8 Q 221696 13068.8 220640 14508.8 Q 220352 14796.8 220256 14988.8 Q 218528 14124.8 217088 13068.8 L 217088 14604.8 L 204800 14604.8 L 204800 12972.8 Q 204320 13356.8 203168 14028.8 Q 202208 14604.8 201632 14988.8 Q 201248 14412.8 199904 12780.8 Q 200960 14028.8 199520 12204.8 Q 207008 8268.8 209504 4140.8  Z M 200480 19404.8 L 200480 16524.8 L 221408 16524.8 L 221408 19404.8 L 215744 19404.8 Q 216512 20364.8 218144 22380.8 Q 219680 24204.8 220448 25164.8 L 217664 26796.8 Q 217472 26604.8 217184 26124.8 Q 216800 25644.8 216608 25356.8 Q 216224 25356.8 215456 25356.8 Q 212288 25452.8 205760 25836.8 Q 205664 25836.8 205472 25836.8 Q 204800 25932.8 203360 26220.8 L 201920 23628.8 Q 204032 22188.8 206144 19404.8 L 200480 19404.8 Z " fill-rule="nonzero" style="fill:#c4a256;;fill-opacity:1;"/>
</svg>