<svg version="1.1" x="0" y="0" width="100%" height="100%" viewBox="0 0 350924.8 56729.6" xmlns="http://www.w3.org/2000/svg">
  <path d="M 14624 13548.8 L 15968 12204.8 L 13568 12204.8 L 13184 15468.8 L 17024 15468.8 Q 15680 14316.8 14624 13548.8  Z M 19232 19596.8 L 17792 20940.8 L 20672 20940.8 Q 20672 19500.8 20768 17772.8 L 16544 17772.8 Q 16928 17964.8 17984 18732.8 Q 18752 19308.8 19232 19596.8  Z M 19232 13932.8 L 17792 15468.8 L 20768 15468.8 Q 20768 13932.8 20864 12204.8 L 16640 12204.8 Q 17024 12396.8 17888 13068.8 Q 18752 13644.8 19232 13932.8  Z M 14528 19116.8 L 15968 17772.8 L 12992 17772.8 L 12704 20940.8 L 16928 20940.8 Q 15680 19980.8 14528 19116.8  Z M 3584 6348.8 L 5600 4236.8 Q 7328 5484.8 9248 7116.8 L 7136 9420.8 Q 6368 8652.8 4640 7212.8 Q 3968 6636.8 3584 6348.8  Z M 3008 12492.8 L 4832 10284.8 Q 6560 11532.8 8480 13164.8 L 6368 15660.8 Q 5696 14892.8 3008 12492.8  Z M 5696 17100.8 Q 6464 17484.8 8288 18060.8 Q 8480 18156.8 8576 18156.8 Q 8288 19308.8 7712 21612.8 Q 6944 24780.8 6464 26412.8 Q 6176 26316.8 5600 26124.8 Q 4160 25644.8 3488 25548.8 Q 4640 21996.8 5696 17100.8  Z M 8096 17772.8 L 8096 15468.8 L 10208 15468.8 L 10592 11820.8 Q 10016 12300.8 9440 12876.8 Q 8672 11820.8 7616 10476.8 Q 10688 7404.8 12128 4140.8 L 15392 4620.8 Q 15200 4908.8 14816 5580.8 Q 14720 5772.8 14720 5868.8 L 25184 5868.8 L 25184 8364.8 L 13184 8364.8 Q 12992 8652.8 12608 9228.8 Q 12320 9612.8 12128 9900.8 L 23936 9900.8 Q 23840 12684.8 23840 15468.8 L 25664 15468.8 L 25664 17772.8 L 23840 17772.8 Q 23744 19308.8 23744 20940.8 L 25472 20940.8 L 25472 23244.8 L 23648 23244.8 Q 23648 24780.8 22880 25452.8 Q 22304 26220.8 20480 26316.8 Q 19616 26412.8 16064 26412.8 Q 15968 26028.8 15776 25260.8 Q 15488 24492.8 15392 24108.8 Q 17600 24108.8 18848 24108.8 Q 20000 24108.8 20384 24012.8 Q 20576 23724.8 20576 23244.8 L 9440 23244.8 L 9920 17772.8 L 8096 17772.8 Z M 35360 18444.8 Q 36224 18732.8 37952 19404.8 Q 39104 19884.8 39680 20076.8 Q 41408 18636.8 42368 16140.8 L 36704 16140.8 Q 35936 17292.8 35360 18444.8  Z M 36608 4908.8 L 40448 4140.8 Q 40544 4620.8 40928 5484.8 Q 41216 6156.8 41312 6540.8 L 49376 6540.8 L 49376 11532.8 L 46112 11532.8 L 46112 9420.8 L 31808 9420.8 L 31808 11436.8 L 28544 11436.8 L 28544 6540.8 L 37280 6540.8 Q 37184 6156.8 36800 5484.8 Q 36704 5100.8 36608 4908.8  Z M 27584 16140.8 L 27584 13260.8 L 34496 13260.8 Q 35360 11532.8 36032 9804.8 L 39680 10764.8 Q 38912 12108.8 38336 13260.8 L 50240 13260.8 L 50240 16140.8 L 46016 16140.8 Q 44960 19308.8 43040 21324.8 Q 43616 21516.8 44768 21900.8 Q 46208 22476.8 49568 23724.8 L 47936 26604.8 Q 43808 24684.8 40160 23436.8 Q 36320 25356.8 29216 26508.8 Q 29120 26220.8 28832 25836.8 Q 28256 24684.8 27584 23724.8 Q 33056 22956.8 36320 21804.8 Q 35552 21516.8 34016 20940.8 Q 31808 20076.8 30848 19692.8 Q 32000 17964.8 33056 16140.8 L 27584 16140.8 Z M 70592 22764.8 L 70592 18924.8 L 63968 18924.8 L 63968 22764.8 L 70592 22764.8 Z M 63968 26508.8 L 60896 26508.8 L 60896 16140.8 L 73568 16140.8 L 73568 26508.8 L 70592 26508.8 L 70592 25260.8 L 63968 25260.8 L 63968 26508.8 Z M 52256 10956.8 L 52256 8076.8 L 54656 8076.8 L 54656 4236.8 L 57632 4236.8 L 57632 8076.8 L 60032 8076.8 L 60032 10956.8 L 57632 10956.8 L 57632 14796.8 Q 57824 14700.8 58304 14604.8 Q 59264 14316.8 59648 14220.8 L 59072 13644.8 Q 63200 11628.8 63200 7980.8 L 60320 7980.8 L 60320 5100.8 L 73952 5100.8 Q 73952 5868.8 73856 7980.8 Q 73664 10284.8 73664 11628.8 Q 73376 14892.8 70400 15084.8 Q 69824 15084.8 68576 15084.8 Q 67328 15180.8 66656 15180.8 Q 66560 14796.8 66368 14028.8 Q 66080 12876.8 65888 12204.8 Q 67424 12204.8 68864 12204.8 Q 70304 12204.8 70496 10764.8 Q 70592 9228.8 70592 7980.8 L 66368 7980.8 Q 66272 13356.8 61088 16140.8 Q 60992 16044.8 60896 15852.8 Q 60512 15372.8 59744 14412.8 Q 59744 16140.8 59840 17292.8 Q 59456 17388.8 58784 17580.8 Q 58016 17772.8 57632 17868.8 L 57632 23916.8 Q 57632 26124.8 55616 26316.8 Q 54368 26412.8 52832 26412.8 Q 52736 25068.8 52256 23724.8 Q 53408 23724.8 53984 23724.8 Q 54656 23628.8 54656 22764.8 L 54656 18732.8 Q 54272 18828.8 53504 19116.8 Q 52736 19308.8 52352 19500.8 L 52064 16140.8 Q 52640 16044.8 53792 15660.8 Q 54368 15564.8 54656 15468.8 L 54656 10956.8 L 52256 10956.8 Z M 77600 25548.8 L 77600 22572.8 L 87296 22572.8 L 87296 18732.8 L 80480 18732.8 L 80480 15660.8 L 87296 15660.8 L 87296 11820.8 L 81728 11820.8 Q 80288 14796.8 78368 17292.8 Q 78272 16908.8 77984 16236.8 Q 77696 15372.8 76832 13356.8 Q 79136 10188.8 80768 5100.8 L 84224 5868.8 Q 84128 6252.8 83840 6828.8 Q 83744 7404.8 83168 8748.8 L 87296 8748.8 L 87296 4236.8 L 90656 4236.8 L 90656 8748.8 L 98240 8748.8 L 98240 11820.8 L 90656 11820.8 L 90656 15660.8 L 97376 15660.8 L 97376 18732.8 L 90656 18732.8 L 90656 22572.8 L 99104 22572.8 L 99104 25548.8 L 77600 25548.8 Z M 106688 10860.8 L 112160 10860.8 L 114848 8460.8 L 109088 8460.8 Q 107936 9708.8 106688 10860.8  Z M 111200 14604.8 L 114464 14604.8 Q 114464 17292.8 113792 19500.8 Q 119840 21804.8 123968 23628.8 L 122048 26604.8 Q 117632 24108.8 112544 21900.8 Q 109952 25164.8 103424 26700.8 Q 102464 24876.8 101216 23628.8 Q 107936 22572.8 109952 20172.8 Q 111296 18636.8 111200 14604.8  Z M 107072 21036.8 L 104000 21036.8 L 104000 13356.8 L 103616 13548.8 Q 103040 12780.8 101312 11052.8 Q 105632 7884.8 108704 4140.8 L 112448 4140.8 L 111296 5868.8 L 119168 5868.8 L 119168 8364.8 L 116288 10860.8 L 121664 10860.8 L 121664 21036.8 L 118496 21036.8 L 118496 13644.8 L 107072 13644.8 L 107072 21036.8 Z M 131552 22092.8 L 128480 22092.8 L 128480 15852.8 L 145952 15852.8 L 145952 21900.8 L 142880 21900.8 L 142880 18156.8 L 131552 18156.8 L 131552 22092.8 Z M 135680 18924.8 L 138944 18924.8 Q 138752 20076.8 138464 21132.8 Q 143360 22284.8 148064 23820.8 L 146528 26604.8 Q 141440 24588.8 137120 23436.8 Q 134720 26028.8 127520 26604.8 Q 126848 24972.8 125984 23724.8 Q 131072 23532.8 133472 22380.8 Q 135392 21324.8 135680 18924.8  Z M 126176 14700.8 L 126176 12396.8 L 135584 12396.8 L 135584 11244.8 L 128288 11244.8 L 128288 9036.8 L 135584 9036.8 L 135584 7980.8 L 127328 7980.8 L 127328 5676.8 L 135584 5676.8 L 135584 4044.8 L 138848 4044.8 L 138848 5676.8 L 147104 5676.8 L 147104 7980.8 L 138848 7980.8 L 138848 9036.8 L 146144 9036.8 L 146144 11244.8 L 138848 11244.8 L 138848 12396.8 L 148256 12396.8 L 148256 14700.8 L 126176 14700.8 Z M 160064 4236.8 L 163424 4236.8 Q 163424 6732.8 163232 9036.8 Q 164864 19692.8 173120 23148.8 Q 172064 24108.8 170816 25740.8 Q 170624 26124.8 170528 26220.8 Q 164384 23244.8 161792 15756.8 Q 159392 22572.8 152768 26412.8 Q 151808 24972.8 150368 23436.8 Q 158336 18828.8 159488 11340.8 Q 160064 8172.8 160064 4236.8  Z M 6112.4 41620.4 L 7322 41620.4 L 7322 52517.6 L 6112.4 52517.6 L 6112.4 41620.4 Z M 2950.4 43955.6 Q 6118.4 40890.8 8493.2 36028.4 L 9598.4 36675.2 Q 6909.2 41896.4 3471.2 45393.2 Q 3326 44794.4 2950.4 43955.6  Z M 3054.8 36651.2 Q 5951.6 34065.2 8056.4 30257.6 L 9140 30975.2 Q 6951.2 34784 3658.4 37944.8 Q 3429.2 37370 3054.8 36651.2  Z M 13346 37686.8 L 22643.6 37686.8 L 22643.6 38976.8 L 13346 38976.8 L 13346 37686.8 Z M 10958 42316.4 L 24994.4 42316.4 L 24994.4 43606.4 L 10958 43606.4 L 10958 42316.4 Z M 17397.2 38044.4 L 18734 38044.4 L 18734 49704.8 Q 18734 52166 16308.8 52166 Q 15664.4 52166 14724.8 52142 Q 14674.4 51496.4 14427.2 50708 Q 15417.2 50852 16332.8 50852 Q 17397.2 50852 17397.2 49680.8 L 17397.2 38044.4 Z M 13550 45250.4 L 14640.8 45988.4 Q 12677.6 48893.6 10540.4 51224 Q 10125.2 50831.6 9537.2 50301.2 Q 11914.4 47856.8 13550 45250.4  Z M 22278.8 45460.4 Q 24020 47742.8 25655.6 50138 L 24438.8 51100.4 Q 22908.8 48616.4 21189.2 46288.4 L 22278.8 45460.4 Z M 18862.4 30276.8 L 18490.4 30938 Q 21580.4 35193.2 26250.8 37817.6 Q 25809.2 38337.2 25320.8 39023.6 Q 21022.4 36304.4 17816 32168 Q 15562.4 36138.8 10683.2 39212 Q 10334 38739.2 9753.2 38124.8 Q 15190.4 34934 17351.6 30276.8 L 18862.4 30276.8 Z M 30219.2 33262.4 L 43938.8 33262.4 L 43938.8 34470.8 L 30219.2 34470.8 L 30219.2 33262.4 Z M 28010 37883.6 L 49923.2 37883.6 L 49923.2 39142.4 L 28010 39142.4 L 28010 37883.6 Z M 36668 30194 L 38049.2 30194 L 38049.2 38248.4 L 36668 38248.4 L 36668 30194 Z M 46823.6 31816.4 L 47975.6 32724.8 Q 41627.6 40953.2 28530.8 46644.8 Q 28084.4 45815.6 27778.4 45228.8 Q 40992.8 39938 46823.6 31816.4  Z M 33584 43216.4 L 34829.6 43216.4 L 34829.6 48830 Q 34829.6 50427.2 36450.8 50427.2 L 44578.4 50427.2 Q 46269.2 50427.2 46457.6 49362.8 Q 46644.8 48032 46715.6 46652 Q 47420 46942.4 48077.6 47160.8 Q 47960 48370.4 47748.8 49604 Q 47397.2 51684.8 45071.6 51684.8 L 36333.2 51684.8 Q 33584 51684.8 33584 49047.2 L 33584 43216.4 Z M 46139.6 42704 L 47106.8 43775.6 Q 41224.4 46412 33852.8 48244.4 L 33852.8 47070.8 Q 41051.6 45216.8 46139.6 42704  Z M 53332.4 32204 L 54665.6 32204 L 54665.6 46755.2 L 53332.4 46755.2 L 53332.4 32204 Z M 57669.2 30471.2 L 59028.8 30471.2 L 59028.8 38594 Q 59028.8 43097.6 58419.2 46125.2 Q 57551.6 49817.6 55466 52499.6 Q 54926 51909.2 54317.6 51392 Q 56333.6 48930.8 57153.2 45657.2 Q 57669.2 42876.8 57669.2 38470.4 L 57669.2 30471.2 Z M 60990.8 31188.8 L 74622.8 31188.8 L 74622.8 32388.8 L 60990.8 32388.8 L 60990.8 31188.8 Z M 67056.8 31922 L 68469.2 31922 L 68469.2 52586 L 67056.8 52586 L 67056.8 31922 Z M 61982 36276.8 L 63366.8 36276.8 L 63366.8 49186.4 L 61982 49186.4 L 61982 36276.8 Z M 62926.4 36276.8 L 73000.4 36276.8 L 73000.4 37476.8 L 62926.4 37476.8 L 62926.4 36276.8 Z M 72320 36276.8 L 73712 36276.8 L 73712 46822.4 Q 73712 48804.8 71681.6 48804.8 Q 70869.2 48804.8 70115.6 48804.8 Q 69999.2 48219.2 69882.8 47723.6 Q 70724 47723.6 71362.4 47723.6 Q 72320 47723.6 72320 46776.8 L 72320 36276.8 Z M 96128 51142.4 L 98144 51142.4 L 98144 31654.4 L 96704 31654.4 Q 95456 34726.4 91040 36742.4 L 91040 38758.4 Q 94016 37606.4 96128 35686.4 L 96128 51142.4 Z M 112710.4 40966.4 Q 115878.4 39814.4 115974.4 36646.4 Q 115782.4 31846.4 110310.4 31654.4 Q 105510.4 31750.4 104358.4 36454.4 L 106470.4 37126.4 Q 107142.4 33574.4 110406.4 33478.4 Q 113478.4 33574.4 113670.4 36646.4 Q 113478.4 40198.4 109350.4 40294.4 Q 108774.4 40294.4 108390.4 40294.4 L 108390.4 42022.4 Q 108774.4 42022.4 110118.4 42022.4 Q 114246.4 42214.4 114534.4 45670.4 Q 114534.4 49702.4 110214.4 49702.4 Q 106662.4 49702.4 106086.4 45766.4 L 103878.4 46342.4 Q 105030.4 51430.4 110406.4 51430.4 Q 116454.4 51142.4 116742.4 45862.4 Q 116550.4 42118.4 112710.4 40966.4  Z M 120928 43846.4 Q 121024 49702.4 125536 49894.4 Q 129184 49702.4 129376 45094.4 Q 129280 40486.4 125536 40390.4 Q 121792 40582.4 120928 43846.4  Z M 131200 35974.4 L 129280 36646.4 Q 128512 33286.4 125632 33382.4 Q 120832 33478.4 120832 41350.4 Q 122368 38758.4 125824 38662.4 Q 131200 38950.4 131584 44902.4 Q 131200 50950.4 125536 51430.4 Q 118720 51430.4 118720 42118.4 Q 118816 31654.4 125728 31654.4 Q 129952 31846.4 131200 35974.4  Z M 142406.4 40966.4 Q 145574.4 39814.4 145670.4 36646.4 Q 145478.4 31846.4 140006.4 31654.4 Q 135206.4 31750.4 134054.4 36454.4 L 136166.4 37126.4 Q 136838.4 33574.4 140102.4 33478.4 Q 143174.4 33574.4 143366.4 36646.4 Q 143174.4 40198.4 139046.4 40294.4 Q 138470.4 40294.4 138086.4 40294.4 L 138086.4 42022.4 Q 138470.4 42022.4 139814.4 42022.4 Q 143942.4 42214.4 144230.4 45670.4 Q 144230.4 49702.4 139910.4 49702.4 Q 136358.4 49702.4 135782.4 45766.4 L 133574.4 46342.4 Q 134726.4 51430.4 140102.4 51430.4 Q 146150.4 51142.4 146438.4 45862.4 Q 146246.4 42118.4 142406.4 40966.4  Z M 154944 41926.4 Q 151104 42118.4 150720 46150.4 Q 151104 49606.4 155040 49894.4 Q 158976 49606.4 159360 46342.4 Q 159072 42118.4 154944 41926.4  Z M 155040 33382.4 Q 151872 33574.4 151584 36646.4 Q 151680 40198.4 155040 40390.4 Q 158208 40294.4 158400 36838.4 Q 158112 33670.4 155040 33382.4  Z M 152352 41158.4 Q 149472 39814.4 149280 36838.4 Q 149664 31942.4 155040 31654.4 Q 160224 32038.4 160704 36838.4 Q 160512 39910.4 157824 41158.4 Q 161376 42502.4 161568 46342.4 Q 161280 51238.4 155040 51430.4 Q 148704 51238.4 148512 46150.4 Q 148800 42406.4 152352 41158.4  Z M 165676.8 43846.4 Q 165772.8 49702.4 170284.8 49894.4 Q 173932.8 49702.4 174124.8 45094.4 Q 174028.8 40486.4 170284.8 40390.4 Q 166540.8 40582.4 165676.8 43846.4  Z M 175948.8 35974.4 L 174028.8 36646.4 Q 173260.8 33286.4 170380.8 33382.4 Q 165580.8 33478.4 165580.8 41350.4 Q 167116.8 38758.4 170572.8 38662.4 Q 175948.8 38950.4 176332.8 44902.4 Q 175948.8 50950.4 170284.8 51430.4 Q 163468.8 51430.4 163468.8 42118.4 Q 163564.8 31654.4 170476.8 31654.4 Q 174700.8 31846.4 175948.8 35974.4  Z M 181491.2 39814.4 L 182067.2 33958.4 L 190323.2 33958.4 L 190323.2 32038.4 L 180435.2 32038.4 L 179283.2 42118.4 L 180723.2 42406.4 Q 181971.2 40390.4 184947.2 40294.4 Q 188979.2 40486.4 189171.2 44902.4 Q 188979.2 49606.4 184851.2 49798.4 Q 181203.2 49702.4 180627.2 45670.4 L 178515.2 46246.4 Q 179571.2 51430.4 185043.2 51430.4 Q 191091.2 51238.4 191283.2 44710.4 Q 190899.2 38662.4 185331.2 38374.4 Q 183219.2 38374.4 181491.2 39814.4  Z M 200268.8 51142.4 L 202284.8 51142.4 L 202284.8 31654.4 L 200844.8 31654.4 Q 199596.8 34726.4 195180.8 36742.4 L 195180.8 38758.4 Q 198156.8 37606.4 200268.8 35686.4 L 200268.8 51142.4 Z M 209843.2 44710.4 L 216371.2 44710.4 L 216371.2 34822.4 Q 216371.2 34918.4 216179.2 35206.4 Q 216083.2 35494.4 215987.2 35686.4 Q 214451.2 37702.4 209843.2 44710.4  Z M 220979.2 46438.4 L 218291.2 46438.4 L 218291.2 51142.4 L 216371.2 51142.4 L 216371.2 46438.4 L 207539.2 46438.4 L 207539.2 45286.4 L 216755.2 31654.4 L 218291.2 31654.4 L 218291.2 44710.4 L 220979.2 44710.4 L 220979.2 46438.4 Z M 230169.6 51142.4 L 232185.6 51142.4 L 232185.6 31654.4 L 230745.6 31654.4 Q 229497.6 34726.4 225081.6 36742.4 L 225081.6 38758.4 Q 228057.6 37606.4 230169.6 35686.4 L 230169.6 51142.4 Z M 244544 41926.4 Q 240704 42118.4 240320 46150.4 Q 240704 49606.4 244640 49894.4 Q 248576 49606.4 248960 46342.4 Q 248672 42118.4 244544 41926.4  Z M 244640 33382.4 Q 241472 33574.4 241184 36646.4 Q 241280 40198.4 244640 40390.4 Q 247808 40294.4 248000 36838.4 Q 247712 33670.4 244640 33382.4  Z M 241952 41158.4 Q 239072 39814.4 238880 36838.4 Q 239264 31942.4 244640 31654.4 Q 249824 32038.4 250304 36838.4 Q 250112 39910.4 247424 41158.4 Q 250976 42502.4 251168 46342.4 Q 250880 51238.4 244640 51430.4 Q 238304 51238.4 238112 46150.4 Q 238400 42406.4 241952 41158.4  Z " fill-rule="nonzero" style="fill:#c4a256;;fill-opacity:1;"/>
</svg>