<svg version="1.1" x="0" y="0" width="100%" height="100%" viewBox="0 0 406886.4 81254.4" xmlns="http://www.w3.org/2000/svg">
  <path d="M 3872 25452.8 L 2912 22380.8 Q 4352 21804.8 5600 21420.8 L 5600 15756.8 L 3392 15756.8 L 3392 12780.8 L 5600 12780.8 L 5600 8364.8 L 3200 8364.8 L 3200 5292.8 L 10976 5292.8 L 10976 8364.8 L 8576 8364.8 L 8576 12780.8 L 10688 12780.8 L 10688 15756.8 L 8576 15756.8 L 8576 20268.8 Q 8768 20172.8 9152 19980.8 Q 9920 19692.8 10784 19212.8 Q 10976 21228.8 11072 22476.8 Q 10304 22764.8 8768 23436.8 Q 5408 24684.8 3872 25452.8  Z M 22784 19980.8 Q 24512 20844.8 25664 21228.8 Q 25568 22572.8 25184 24012.8 Q 24608 26124.8 22688 26124.8 L 20288 26124.8 Q 17504 26124.8 17504 23724.8 L 17504 20748.8 Q 15680 24204.8 11648 26604.8 Q 11264 26124.8 10496 25164.8 Q 9824 24396.8 9440 24012.8 Q 13856 21804.8 15008 19116.8 Q 16352 16524.8 16352 9324.8 L 19424 9324.8 Q 19328 14316.8 18656 17580.8 L 20384 17580.8 L 20384 22668.8 Q 20480 23628.8 21344 23628.8 Q 22400 23628.8 22496 22764.8 Q 22592 22284.8 22688 21324.8 Q 22784 20460.8 22784 19980.8  Z M 14720 19404.8 L 11648 19404.8 L 11648 5004.8 L 24224 5004.8 L 24224 19212.8 L 21152 19212.8 L 21152 7980.8 L 14720 7980.8 L 14720 19404.8 Z M 44384 23148.8 Q 46304 23148.8 46400 21516.8 Q 46592 19212.8 46688 15180.8 L 45536 15180.8 Q 44672 19692.8 42368 23148.8 Q 43520 23148.8 44384 23148.8  Z M 48032 7980.8 L 41312 12396.8 L 49568 12396.8 Q 49568 17100.8 49280 22188.8 Q 49088 25836.8 45824 26028.8 Q 45344 26124.8 44384 26124.8 Q 43424 26220.8 42944 26220.8 Q 42656 24780.8 42368 23244.8 Q 41024 24780.8 39296 26412.8 Q 38624 25836.8 37280 24972.8 Q 36800 24588.8 36512 24396.8 Q 41504 20844.8 42656 15180.8 L 40832 15180.8 Q 39584 19788.8 36512 22572.8 Q 36416 22380.8 36032 22092.8 Q 35648 21708.8 35456 21612.8 L 35456 23340.8 Q 34112 23628.8 31520 24012.8 Q 29120 24492.8 28064 24684.8 L 27488 21708.8 Q 28832 21420.8 30176 21228.8 L 30176 13164.8 L 27776 13164.8 L 27776 9996.8 L 30176 9996.8 L 30176 4236.8 L 33248 4236.8 L 33248 9996.8 L 35360 9996.8 L 35360 13164.8 L 33248 13164.8 L 33248 20556.8 Q 33728 20556.8 34304 20364.8 Q 36896 18348.8 37952 15180.8 L 35840 15180.8 L 35840 12492.8 L 42656 8076.8 L 35840 8076.8 L 35840 5292.8 L 48032 5292.8 L 48032 7980.8 Z M 52448 5772.8 L 54464 3948.8 Q 56480 5580.8 58016 7212.8 Q 56864 8076.8 55712 9324.8 Q 54272 7596.8 52448 5772.8  Z M 54080 17676.8 L 51776 15756.8 Q 54560 12012.8 56192 9420.8 Q 57536 10668.8 58400 11436.8 Q 57824 12204.8 56672 13932.8 Q 55040 16332.8 54080 17676.8  Z M 69248 22764.8 L 69248 20364.8 L 58112 20364.8 L 58112 22764.8 L 69248 22764.8 Z M 64352 8844.8 L 67424 8844.8 Q 67328 9228.8 67136 9804.8 Q 68672 13452.8 74816 14508.8 Q 74432 15180.8 73760 16620.8 Q 73472 17292.8 73376 17580.8 Q 68096 16140.8 65888 12300.8 Q 64352 15756.8 58304 17292.8 Q 57824 16140.8 56672 14412.8 Q 60992 13644.8 62720 12108.8 Q 64064 10956.8 64352 8844.8  Z M 63392 5676.8 L 73952 5676.8 L 73952 8076.8 Q 72992 9900.8 72128 11628.8 L 69248 10764.8 Q 69440 10476.8 69632 9996.8 Q 70112 9228.8 70592 8364.8 L 61952 8364.8 Q 60992 9900.8 59840 11628.8 Q 58688 10572.8 57344 9900.8 Q 59648 7020.8 60800 4140.8 L 63968 4332.8 Q 63872 4524.8 63680 5004.8 Q 63488 5388.8 63392 5676.8  Z M 54848 26508.8 L 54848 17484.8 L 72512 17484.8 L 72512 26508.8 L 69248 26508.8 L 69248 25452.8 L 58112 25452.8 L 58112 26508.8 L 54848 26508.8 Z M 86912 19404.8 L 90560 19404.8 L 90560 17772.8 L 86912 17772.8 L 86912 19404.8 Z M 90560 15372.8 L 90560 13644.8 L 86912 13644.8 L 86912 15372.8 L 90560 15372.8 Z M 77312 5868.8 L 79808 4428.8 Q 81440 6444.8 82688 8556.8 Q 82112 8940.8 80576 9804.8 Q 80192 10092.8 80000 10188.8 Q 78848 7884.8 77312 5868.8  Z M 83552 19788.8 Q 83552 21516.8 83840 23244.8 Q 81440 24780.8 79712 26316.8 L 78080 24108.8 Q 78752 23532.8 78752 22380.8 L 78752 14700.8 L 76736 14700.8 L 76736 11724.8 L 81632 11724.8 L 81632 21324.8 Q 81920 21132.8 82400 20652.8 Q 83168 20076.8 83552 19788.8  Z M 85856 4044.8 Q 86432 4140.8 87488 4236.8 Q 88544 4428.8 89024 4524.8 Q 88640 5580.8 88160 6444.8 L 98432 6444.8 Q 98432 16140.8 98240 21324.8 Q 98144 26220.8 93824 26220.8 Q 92000 26220.8 89696 26220.8 Q 89408 24492.8 89024 23244.8 Q 89600 23340.8 91040 23340.8 Q 92384 23436.8 93152 23436.8 Q 94880 23436.8 95168 21516.8 Q 95360 16716.8 95360 9516.8 L 86432 9516.8 Q 86240 9900.8 85760 10572.8 Q 85472 10956.8 85376 11148.8 L 93248 11148.8 L 93248 21900.8 L 86912 21900.8 L 86912 23148.8 L 84320 23148.8 L 84320 12492.8 Q 84128 12588.8 83840 12972.8 Q 83648 13164.8 83552 13260.8 Q 83456 13164.8 83264 12876.8 Q 82112 11436.8 81536 10956.8 Q 84608 7884.8 85856 4044.8  Z M 114656 20652.8 L 116576 19404.8 L 111776 19404.8 Q 110624 20940.8 108800 22860.8 Q 110144 22860.8 114080 22764.8 Q 115424 22668.8 116192 22668.8 Q 115520 21612.8 114656 20652.8  Z M 112640 7404.8 Q 110816 9708.8 108032 11820.8 L 117056 11820.8 Q 114464 9804.8 112640 7404.8  Z M 111200 4140.8 L 115136 4140.8 L 114464 4908.8 Q 117440 9324.8 124064 12300.8 Q 123392 13068.8 122336 14508.8 Q 122048 14796.8 121952 14988.8 Q 120224 14124.8 118784 13068.8 L 118784 14604.8 L 106496 14604.8 L 106496 12972.8 Q 106016 13356.8 104864 14028.8 Q 103904 14604.8 103328 14988.8 Q 102944 14412.8 101600 12780.8 Q 102656 14028.8 101216 12204.8 Q 108704 8268.8 111200 4140.8  Z M 102176 19404.8 L 102176 16524.8 L 123104 16524.8 L 123104 19404.8 L 117440 19404.8 Q 118208 20364.8 119840 22380.8 Q 121376 24204.8 122144 25164.8 L 119360 26796.8 Q 119168 26604.8 118880 26124.8 Q 118496 25644.8 118304 25356.8 Q 117920 25356.8 117152 25356.8 Q 113984 25452.8 107456 25836.8 Q 107360 25836.8 107168 25836.8 Q 106496 25932.8 105056 26220.8 L 103616 23628.8 Q 105728 22188.8 107840 19404.8 L 102176 19404.8 Z M 15488 50950.4 L 15488 49318.4 L 5408 49318.4 Q 6656 46822.4 10592 43942.4 Q 15680 40486.4 15392 36742.4 Q 15008 31846.4 9632 31654.4 Q 4928 31558.4 3296 36262.4 L 5216 37222.4 Q 6272 33670.4 9248 33478.4 Q 13088 33574.4 13184 37030.4 Q 13280 39622.4 8960 42790.4 Q 4736 45862.4 2912 49702.4 L 2912 50950.4 L 15488 50950.4 Z M 19808 43846.4 Q 19904 49702.4 24416 49894.4 Q 28064 49702.4 28256 45094.4 Q 28160 40486.4 24416 40390.4 Q 20672 40582.4 19808 43846.4  Z M 30080 35974.4 L 28160 36646.4 Q 27392 33286.4 24512 33382.4 Q 19712 33478.4 19712 41350.4 Q 21248 38758.4 24704 38662.4 Q 30080 38950.4 30464 44902.4 Q 30080 50950.4 24416 51430.4 Q 17600 51430.4 17600 42118.4 Q 17696 31654.4 24608 31654.4 Q 28832 31846.4 30080 35974.4  Z M 35808.4 31648.4 L 37344.4 31648.4 L 37344.4 52311.2 L 35808.4 52311.2 L 35808.4 31648.4 Z M 36817.6 31648.4 L 50904.4 31648.4 L 50904.4 33040.4 L 36817.6 33040.4 L 36817.6 31648.4 Z M 50370.4 31648.4 L 51906.4 31648.4 L 51906.4 52312.4 L 50370.4 52312.4 L 50370.4 31648.4 Z M 36965.2 40504.4 L 50836 40504.4 L 50836 41896.4 L 36965.2 41896.4 L 36965.2 40504.4 Z M 36972.4 49384.4 L 50915.2 49384.4 L 50915.2 50776.4 L 36972.4 50776.4 L 36972.4 49384.4 Z M 72102.4 53734.4 L 73926.4 53734.4 Q 69414.4 48358.4 69510.4 41734.4 Q 69510.4 35206.4 73926.4 29446.4 L 72198.4 29446.4 Q 67590.4 35206.4 67494.4 41734.4 Q 67686.4 48454.4 72102.4 53734.4  Z M 82213.6 34301.6 L 103812.4 34301.6 L 103812.4 35597.6 L 82213.6 35597.6 L 82213.6 34301.6 Z M 86832.4 46714.4 L 99023.2 46714.4 L 99023.2 47914.4 L 86832.4 47914.4 L 86832.4 46714.4 Z M 92342.8 30100.4 L 93686.8 30100.4 L 93686.8 52563.2 L 92342.8 52563.2 L 92342.8 30100.4 Z M 92070.4 35052.8 L 92886.4 35368.4 Q 89070.4 43469.6 82806.4 48539.6 Q 82278.4 47836.4 81654.4 47302.4 Q 87774.4 42936.8 92070.4 35052.8  Z M 94006 34852.4 Q 97231.6 42212 104058.4 46818.8 Q 103544.8 47270 102866.8 48100.4 Q 96040 42806 93187.6 35090 L 94006 34852.4 Z M 112493.2 35445.2 L 123629.2 35445.2 L 123629.2 36693.2 L 112493.2 36693.2 L 112493.2 35445.2 Z M 111389.2 39381.2 L 124780 39381.2 L 124780 40629.2 L 111389.2 40629.2 L 111389.2 39381.2 Z M 117397.6 33436.4 L 118741.6 33436.4 L 118741.6 40156.4 L 117397.6 40156.4 L 117397.6 33436.4 Z M 109126 31106 L 126934 31106 L 126934 32402 L 109126 32402 L 109126 31106 Z M 126378.4 31106 L 127756 31106 L 127756 49322 Q 127756 52250 125023.6 52250 Q 123404.8 52274 121590.4 52250 Q 121470.4 51530 121228 50714 Q 123259.6 50858 124444 50858 Q 126354.4 50858 126378.4 49346 L 126378.4 31106 Z M 108414.4 31106 L 109806.4 31106 L 109806.4 41189.6 Q 109806.4 48399.2 107238.4 52368.8 Q 106686.4 51760.4 106086.4 51321.2 Q 108414.4 47375.6 108414.4 41189.6 L 108414.4 31106 Z M 113269.6 42843.2 L 114613.6 42843.2 L 114613.6 48963.2 L 113269.6 48963.2 L 113269.6 42843.2 Z M 114048.4 42843.2 L 122159.2 42843.2 L 122159.2 44091.2 L 114048.4 44091.2 L 114048.4 42843.2 Z M 121525.6 42843.2 L 122869.6 42843.2 L 122869.6 48963.2 L 121525.6 48963.2 L 121525.6 42843.2 Z M 114000.4 47715.2 L 122111.2 47715.2 L 122111.2 48963.2 L 114000.4 48963.2 L 114000.4 47715.2 Z M 134112.4 31648.4 L 135648.4 31648.4 L 135648.4 52311.2 L 134112.4 52311.2 L 134112.4 31648.4 Z M 135121.6 31648.4 L 149208.4 31648.4 L 149208.4 33040.4 L 135121.6 33040.4 L 135121.6 31648.4 Z M 148674.4 31648.4 L 150210.4 31648.4 L 150210.4 52312.4 L 148674.4 52312.4 L 148674.4 31648.4 Z M 135269.2 40504.4 L 149140 40504.4 L 149140 41896.4 L 135269.2 41896.4 L 135269.2 40504.4 Z M 135276.4 49384.4 L 149219.2 49384.4 L 149219.2 50776.4 L 135276.4 50776.4 L 135276.4 49384.4 Z M 161382.4 53734.4 L 163110.4 53734.4 Q 167526.4 48454.4 167718.4 41734.4 Q 167622.4 35206.4 163110.4 29446.4 L 161286.4 29446.4 Q 165702.4 35206.4 165702.4 41734.4 Q 165798.4 48262.4 161382.4 53734.4  Z M 190625.2 37610 L 200609.2 37610 L 200609.2 39002 L 190625.2 39002 L 190625.2 37610 Z M 180233.2 49761.2 L 202433.2 49761.2 L 202433.2 51153.2 L 180233.2 51153.2 L 180233.2 49761.2 Z M 189390.4 30614 L 191022.4 30614 L 191022.4 50196.8 L 189390.4 50196.8 L 189390.4 30614 Z M 209304.4 33204.8 L 225314.8 33204.8 L 225314.8 34556 L 209304.4 34556 L 209304.4 33204.8 Z M 204840.4 41915.6 L 227209.6 41915.6 L 227209.6 43313.6 L 204840.4 43313.6 L 204840.4 41915.6 Z M 215808.4 33828.8 L 217346.8 33828.8 L 217346.8 52611.2 L 215808.4 52611.2 L 215808.4 33828.8 Z M 210367.6 29988.8 L 211820.8 30456.8 Q 209462.8 35902.4 206748.4 39252.8 Q 206200 38735.6 205604.8 38169.2 Q 208582 34695.2 210367.6 29988.8  Z M 229841.2 34990.4 L 245393.2 34990.4 L 245393.2 36286.4 L 229841.2 36286.4 L 229841.2 34990.4 Z M 236418.4 30323.6 L 237974.8 30323.6 Q 237974.8 35294 237905.2 38117.6 Q 237788.8 43450.4 236395.6 46370 Q 234607.6 49941.2 230358.4 52282.4 Q 229916.8 51557.6 229382.8 50834 Q 233306.8 48711.2 234932.8 45766.4 Q 236279.2 43088 236372.8 38189.6 Q 236442.4 35150 236418.4 30323.6  Z M 243910 35296.4 L 245370.4 35296.4 L 245370.4 48629.6 Q 245426.8 50193.2 246859.6 50357.6 L 248518 50357.6 Q 249866.8 50193.2 250091.2 48683.6 Q 250288 47120 250372 45665.6 Q 251102.8 46023.2 251945.2 46352 Q 251804.8 47888 251580.4 49040 Q 251159.2 51784.4 248348.8 51784.4 L 246691.6 51784.4 Q 243882.4 51784.4 243910 48683.6 L 243910 35296.4 Z M 265021.6 32946.8 L 275941.6 32946.8 L 275941.6 34146.8 L 265021.6 34146.8 L 265021.6 32946.8 Z M 264048.4 30119.6 L 265440.4 30119.6 L 265440.4 38543.6 L 264048.4 38543.6 L 264048.4 30119.6 Z M 261930.4 47007.2 Q 262883.2 49269.2 263742.4 51635.6 L 262406.8 52071.2 Q 261572.8 49581.2 260690.8 47422.4 L 261930.4 47007.2 Z M 267485.2 46883.6 Q 268487.2 49083.2 269392 51406.4 L 268057.6 51843.2 Q 267151.6 49331.6 266245.6 47298.8 L 267485.2 46883.6 Z M 273016 46799.6 Q 274494.4 49124 275924.8 51656 L 274590.4 52216.4 Q 273206.8 49539.2 271776.4 47339.6 L 273016 46799.6 Z M 258234.4 47422.4 Q 256733.2 50099.6 255110.8 52319.6 L 253871.2 51614 Q 255659.2 49373.6 256994.8 46883.6 L 258234.4 47422.4 Z M 256669.6 37996.4 L 257995.6 37996.4 L 257995.6 45293.6 L 256669.6 45293.6 L 256669.6 37996.4 Z M 257389.6 37996.4 L 273084.4 37996.4 L 273084.4 39332 L 257389.6 39332 L 257389.6 37996.4 Z M 272479.6 37996.4 L 273805.6 37996.4 L 273805.6 45293.6 L 272479.6 45293.6 L 272479.6 37996.4 Z M 257412.4 43958 L 273107.2 43958 L 273107.2 45293.6 L 257412.4 45293.6 L 257412.4 43958 Z M 278975.2 31481.6 L 300262 31481.6 L 300262 32729.6 L 278975.2 32729.6 L 278975.2 31481.6 Z M 293848 34374.8 Q 296990.8 37413.2 299953.6 40587.2 L 298651.6 41516 Q 295688.8 38129.6 292657.6 35129.6 L 293848 34374.8 Z M 288564.4 31456.4 L 289999.6 32200.4 Q 286352.8 36034.4 282684.4 39036.8 Q 288564.4 38838.8 297042.4 38488.4 Q 297566.8 39058.4 298114 39650 Q 289976.8 39956 282797.2 40329.2 Q 281635.6 40394 280632.4 40613.6 L 280016.8 39124.4 Q 280997.2 38795.6 281749.6 38225.6 Q 285419.2 35312 288564.4 31456.4  Z M 280142.8 43954.4 L 299164 43954.4 L 299164 45244.4 L 280142.8 45244.4 L 280142.8 43954.4 Z M 278170 49890.8 L 301208.8 49890.8 L 301208.8 51180.8 L 278170 51180.8 L 278170 49890.8 Z M 288912.4 41178.8 L 290345.2 41178.8 L 290345.2 50421.2 L 288912.4 50421.2 L 288912.4 41178.8 Z M 303067.6 38915.6 L 325315.6 38915.6 L 325315.6 40403.6 L 303067.6 40403.6 L 303067.6 38915.6 Z M 313374.4 30334.4 L 315006.4 30334.4 L 315006.4 52582.4 L 313374.4 52582.4 L 313374.4 30334.4 Z M 329868.4 33164 L 348068.8 33164 L 348068.8 34522.4 L 329868.4 34522.4 L 329868.4 33164 Z M 327860.8 48580.4 L 349771.6 48580.4 L 349771.6 49938.8 L 327860.8 49938.8 L 327860.8 48580.4 Z M 363325.6 32946.8 L 374245.6 32946.8 L 374245.6 34146.8 L 363325.6 34146.8 L 363325.6 32946.8 Z M 362352.4 30119.6 L 363744.4 30119.6 L 363744.4 38543.6 L 362352.4 38543.6 L 362352.4 30119.6 Z M 360234.4 47007.2 Q 361187.2 49269.2 362046.4 51635.6 L 360710.8 52071.2 Q 359876.8 49581.2 358994.8 47422.4 L 360234.4 47007.2 Z M 365789.2 46883.6 Q 366791.2 49083.2 367696 51406.4 L 366361.6 51843.2 Q 365455.6 49331.6 364549.6 47298.8 L 365789.2 46883.6 Z M 371320 46799.6 Q 372798.4 49124 374228.8 51656 L 372894.4 52216.4 Q 371510.8 49539.2 370080.4 47339.6 L 371320 46799.6 Z M 356538.4 47422.4 Q 355037.2 50099.6 353414.8 52319.6 L 352175.2 51614 Q 353963.2 49373.6 355298.8 46883.6 L 356538.4 47422.4 Z M 354973.6 37996.4 L 356299.6 37996.4 L 356299.6 45293.6 L 354973.6 45293.6 L 354973.6 37996.4 Z M 355693.6 37996.4 L 371388.4 37996.4 L 371388.4 39332 L 355693.6 39332 L 355693.6 37996.4 Z M 370783.6 37996.4 L 372109.6 37996.4 L 372109.6 45293.6 L 370783.6 45293.6 L 370783.6 37996.4 Z M 355716.4 43958 L 371411.2 43958 L 371411.2 45293.6 L 355716.4 45293.6 L 355716.4 43958 Z M 13560.8 54753.6 L 14952.8 54753.6 L 14952.8 60681.6 L 13560.8 60681.6 L 13560.8 54753.6 Z M 9872 56355.6 L 10784 57412.8 Q 7760 59780.4 4472 61803.6 Q 3992 61137.6 3608 60676.8 Q 7064 58585.2 9872 56355.6  Z M 19088 56107.2 Q 22304 57955.2 25520 59971.2 L 24752 61195.2 Q 21560 59107.2 18296 57259.2 L 19088 56107.2 Z M 20312 59707.2 L 20960 60931.2 Q 14600 63355.2 3464 65707.2 Q 3224 64963.2 2960 64435.2 Q 13832 62275.2 20312 59707.2  Z M 6834.8 64191.6 L 8121.2 64191.6 L 8121.2 77006.4 L 6834.8 77006.4 L 6834.8 64191.6 Z M 7542.8 64191.6 L 22265.6 64191.6 L 22265.6 65546.4 L 7542.8 65546.4 L 7542.8 64191.6 Z M 21748.4 64191.6 L 23034.8 64191.6 L 23034.8 77006.4 L 21748.4 77006.4 L 21748.4 64191.6 Z M 7614.8 74580 L 22337.6 74580 L 22337.6 75934.8 L 7614.8 75934.8 L 7614.8 74580 Z M 7638.8 67674 L 22361.6 67674 L 22361.6 68972.4 L 7638.8 68972.4 L 7638.8 67674 Z M 7566.8 71118 L 22289.6 71118 L 22289.6 72416.4 L 7566.8 72416.4 L 7566.8 71118 Z M 30224 67915.2 Q 31064 68323.2 31520 68467.2 Q 30800 71419.2 29504 76819.2 L 28136 76315.2 Q 29456 71971.2 30224 67915.2  Z M 28472 61171.2 Q 30440 62707.2 31760 63739.2 L 30824 64819.2 Q 29408 63523.2 27680 62083.2 L 28472 61171.2 Z M 29504 55291.2 Q 31328 56755.2 32936 58243.2 L 31928 59251.2 Q 30248 57547.2 28616 56203.2 L 29504 55291.2 Z M 36162.8 56755.2 L 49869.2 56755.2 L 49869.2 57969.6 L 36162.8 57969.6 L 36162.8 56755.2 Z M 32228 66249.6 L 50417.6 66249.6 L 50417.6 67464 L 32228 67464 L 32228 66249.6 Z M 34926.8 72192 L 49761.2 72192 L 49761.2 73357.2 L 34926.8 73357.2 L 34926.8 72192 Z M 35697.2 60325.2 L 37156.4 60325.2 L 35550.8 73357.2 L 34115.6 73357.2 L 35697.2 60325.2 Z M 36155.6 60325.2 L 47267.6 60325.2 L 47267.6 61539.6 L 36155.6 61539.6 L 36155.6 60325.2 Z M 46389.2 60325.2 L 47841.2 60325.2 Q 47640.8 68702.4 47440.4 73074 Q 47240 76934.4 43886 76934.4 Q 42333.2 76934.4 40380.8 76837.2 Q 40256 76060.8 40030.4 75332.4 Q 42358.4 75550.8 43734.8 75550.8 Q 45788 75550.8 45963.2 73365.6 Q 46188.8 68775.6 46389.2 60325.2  Z M 37174.4 54302.4 L 38643.2 54732 Q 36287.6 58760.4 33536 61392 Q 33230 60962.4 32588 60264 Q 35584.4 57444 37174.4 54302.4  Z M 40539.2 62294.4 Q 41980.4 63433.2 43192.4 64425.6 L 42162.8 65354.4 Q 40928 64214.4 39602 63117.6 L 40539.2 62294.4 Z M 40120.4 68316 Q 41560.4 69456 42773.6 70447.2 L 41744 71376 Q 40509.2 70236 39182 69139.2 L 40120.4 68316 Z M 53734.4 59692.8 L 55222.4 59692.8 L 55222.4 69868.8 L 53734.4 69868.8 L 53734.4 59692.8 Z M 54408.8 59692.8 L 72575.6 59692.8 L 72575.6 60988.8 L 54408.8 60988.8 L 54408.8 59692.8 Z M 71782.4 59692.8 L 73270.4 59692.8 L 73270.4 69891.6 L 71782.4 69891.6 L 71782.4 59692.8 Z M 54382.4 67372.8 L 72669.2 67372.8 L 72669.2 68668.8 L 54382.4 68668.8 L 54382.4 67372.8 Z M 62733.2 54702 L 64269.2 54702 L 64269.2 77260.8 L 62733.2 77260.8 L 62733.2 54702 Z M 79815.2 62248.8 L 80973.2 62248.8 L 80973.2 77007.6 L 79815.2 77007.6 L 79815.2 62248.8 Z M 81639.2 54823.2 L 82838 55251.6 Q 80378 62810.4 77152.4 67292.4 Q 76884.8 66530.4 76574 65910 Q 79860.8 61046.4 81639.2 54823.2  Z M 82895.6 59540.4 L 98734.4 59540.4 L 98734.4 60788.4 L 82895.6 60788.4 L 82895.6 59540.4 Z M 86632.4 71048.4 L 94768.4 71048.4 L 94768.4 72248.4 L 86632.4 72248.4 L 86632.4 71048.4 Z M 89984 54795.6 L 91352 54795.6 L 91352 77042.4 L 89984 77042.4 L 89984 54795.6 Z M 89144 59864.4 L 89960 60076.8 Q 88016 67408.8 82712 73161.6 Q 82256 72524.4 81632 71888.4 Q 86696 66748.8 89144 59864.4  Z M 91472 60187.2 L 92495.6 60187.2 Q 94761.2 68155.2 99488 71491.2 Q 98781.2 72235.2 98367.2 72787.2 Q 93616.4 69067.2 91472 60187.2  Z M 101559.2 57128.4 L 123711.2 57128.4 L 123711.2 58280.4 L 101559.2 58280.4 L 101559.2 57128.4 Z M 112748 54693.6 Q 113645.6 56103.6 114431.6 57582 L 113028.8 58029.6 Q 112467.2 56820 111456.8 55119.6 L 112748 54693.6 Z M 109506.8 57441.6 L 110772.8 58209.6 Q 108975.2 59772 106722.8 61472.4 Q 116189.6 61171.2 119580.8 61143.6 L 121200.8 62377.2 Q 109557.2 62678.4 106317.2 62870.4 Q 105431.6 62925.6 104242.4 63199.2 L 103608.8 61609.2 Q 104849.6 61280.4 105557.6 60787.2 Q 107355.2 59443.2 109506.8 57441.6  Z M 117626 58962 Q 120219.2 60962.4 122688.8 63007.2 L 121626.8 64098 Q 119231.6 61848 116688.8 59962.8 L 117626 58962 Z M 105466.4 68301.6 L 120148.4 68301.6 L 120148.4 69349.2 L 105466.4 69349.2 L 105466.4 68301.6 Z M 105443.6 71684.4 L 120125.6 71684.4 L 120125.6 72732 L 105443.6 72732 L 105443.6 71684.4 Z M 104655.2 64941.6 L 105958.4 64941.6 L 105958.4 76965.6 L 104655.2 76965.6 L 104655.2 64941.6 Z M 105401.6 64941.6 L 120736.4 64941.6 L 120736.4 65989.2 L 105401.6 65989.2 L 105401.6 64941.6 Z M 119418.8 65714.4 L 120734 65714.4 L 120734 74727.6 Q 120734 76796.4 118103.6 76796.4 Q 116714 76820.4 114741.2 76820.4 Q 114668 76178.4 114497.6 75536.4 Q 116592.8 75655.2 117810.8 75655.2 Q 119418.8 75655.2 119418.8 74228.4 L 119418.8 65714.4 Z M 128166.8 58778.4 L 132725.6 58778.4 L 132725.6 59985.6 L 128166.8 59985.6 L 128166.8 58778.4 Z M 132478.4 58778.4 L 133322 58778.4 L 133322 59858.4 L 132090.8 63307.2 Q 131476.4 63099.6 130952 62974.8 L 132478.4 58778.4 Z M 128490.8 55090.8 L 129706.4 55346.4 Q 128465.6 60316.8 126387.2 64567.2 Q 125956.4 63894 125627.6 63522 Q 127578.8 59248.8 128490.8 55090.8  Z M 128709.2 63210 L 129902 63210 L 129902 73279.2 Q 131031.2 72202.8 132521.6 70647.6 Q 132692 71533.2 132798.8 72082.8 Q 130371.2 74546.4 129689.6 75264 Q 129519.2 75478.8 129156.8 76029.6 L 128241.2 74905.2 Q 128709.2 74379.6 128709.2 73183.2 L 128709.2 63210 Z M 135726.8 61730.4 L 137094.8 61730.4 L 137094.8 77083.2 L 135726.8 77083.2 L 135726.8 61730.4 Z M 136451.6 61730.4 L 145618.4 61730.4 L 145618.4 62882.4 L 136451.6 62882.4 L 136451.6 61730.4 Z M 144989.6 61730.4 L 146285.6 61730.4 L 146285.6 67082.4 L 144989.6 67082.4 L 144989.6 61730.4 Z M 136443.2 65930.4 L 145562 65930.4 L 145562 67082.4 L 136443.2 67082.4 L 136443.2 65930.4 Z M 134336 57717.6 L 135680 57717.6 L 135680 60909.6 L 134336 60909.6 L 134336 57717.6 Z M 135032 57717.6 L 147606.8 57717.6 L 147606.8 58917.6 L 135032 58917.6 L 135032 57717.6 Z M 146864 57717.6 L 148208 57717.6 L 148208 60909.6 L 146864 60909.6 L 146864 57717.6 Z M 136427.6 69916.8 L 146362.4 69916.8 L 146362.4 71068.8 L 136427.6 71068.8 L 136427.6 69916.8 Z M 145734.8 69916.8 L 147030.8 69916.8 L 147030.8 76926 L 145734.8 76926 L 145734.8 69916.8 Z M 136370 74524.8 L 146402 74524.8 L 146402 75676.8 L 136370 75676.8 L 136370 74524.8 Z M 140459.6 54516 Q 141245.6 55473.6 142235.6 56810.4 L 141111.2 57612 Q 140212.4 56208 139403.6 55206 L 140459.6 54516 Z " fill-rule="nonzero" style="fill:#c4a256;;fill-opacity:1;"/>
</svg>